<svg id="Group_24" data-name="Group 24" xmlns="http://www.w3.org/2000/svg" width="113.555" height="37.145" viewBox="0 0 113.555 37.145">
  <path id="Path_121" data-name="Path 121" d="M210.192,967.95a5.02,5.02,0,0,1-5.019,5.02H101.657a5.02,5.02,0,0,1-5.02-5.019V940.845a5.02,5.02,0,0,1,5.019-5.02H205.173a5.019,5.019,0,0,1,5.019,5.019Z" transform="translate(-96.637 -935.825)" fill="#fff"/>
  <g id="Group_20" data-name="Group 20" transform="translate(7.618 5.774)">
    <path id="Path_122" data-name="Path 122" d="M153.632,1002.671a18.393,18.393,0,0,1-1.663,3.1c-1.08,1.644-2.6,3.692-4.488,3.709-1.676.016-2.107-1.091-4.381-1.078s-2.749,1.1-4.426,1.082c-1.886-.017-3.328-1.866-4.408-3.51-3.02-4.6-3.335-9.992-1.473-12.86a6.683,6.683,0,0,1,5.375-3.231c2,0,3.256,1.1,4.908,1.1,1.6,0,2.58-1.1,4.891-1.1a6.523,6.523,0,0,1,4.917,2.6A5.626,5.626,0,0,0,153.632,1002.671Z" transform="translate(-131.637 -983.893)" fill="#1b2b50"/>
    <g id="Group_19" data-name="Group 19" transform="translate(10.572)">
      <path id="Path_123" data-name="Path 123" d="M184.213,966.511a5.611,5.611,0,0,0,1.246-4.156,6.062,6.062,0,0,0-3.913,2.1,5.209,5.209,0,0,0-1.279,4.053A5.116,5.116,0,0,0,184.213,966.511Z" transform="translate(-180.207 -962.355)" fill="#1b2b50"/>
    </g>
  </g>
  <g id="Group_23" data-name="Group 23" transform="translate(34.487 5.829)">
    <g id="Group_21" data-name="Group 21" transform="translate(0 8.898)">
      <path id="Path_124" data-name="Path 124" d="M259.408,1004.42l-4.326,12.733h1.981l1.291-3.91h4.189l1.328,3.91h2.036l-4.345-12.733Zm1.026,2.094c.146.568.3,1.159.506,1.8l1.166,3.376h-3.318l1.15-3.4C260.114,1007.737,260.279,1007.142,260.434,1006.514Z" transform="translate(-255.082 -1004.217)" fill="#1b2b50"/>
      <path id="Path_125" data-name="Path 125" d="M312.913,1019.586a3.6,3.6,0,0,0-3.063,1.469l-.077-1.266H308.01l.01.162c.052.789.074,1.658.074,2.9v9.815h1.927v-4.58a3.383,3.383,0,0,0,2.634,1.132,3.972,3.972,0,0,0,2.919-1.241,5.265,5.265,0,0,0,1.289-3.706,5.124,5.124,0,0,0-1.119-3.384,3.666,3.666,0,0,0-2.831-1.306Zm-.48,1.595c1.718,0,2.486,1.591,2.486,3.167,0,2.033-.981,3.3-2.559,3.3a2.335,2.335,0,0,1-2.27-1.788,2.454,2.454,0,0,1-.068-.624v-1.549a2.9,2.9,0,0,1,.061-.476c.01-.053.02-.105.028-.156A2.44,2.44,0,0,1,312.433,1021.181Z" transform="translate(-296.49 -1016.082)" fill="#1b2b50"/>
      <path id="Path_126" data-name="Path 126" d="M358.5,1019.586a3.606,3.606,0,0,0-3.063,1.469l-.077-1.267H353.6l.01.162c.052.79.074,1.657.074,2.9v9.815h1.927v-4.58a3.382,3.382,0,0,0,2.634,1.132,3.977,3.977,0,0,0,2.921-1.241,5.271,5.271,0,0,0,1.288-3.706,5.123,5.123,0,0,0-1.12-3.384,3.663,3.663,0,0,0-2.833-1.306Zm-.479,1.595c1.717,0,2.485,1.591,2.485,3.167,0,2.034-.981,3.3-2.559,3.3a2.336,2.336,0,0,1-2.27-1.788,2.461,2.461,0,0,1-.068-.624v-1.549a2.863,2.863,0,0,1,.061-.477c.01-.052.019-.1.028-.155a2.438,2.438,0,0,1,2.321-1.871Z" transform="translate(-332.157 -1016.082)" fill="#1b2b50"/>
      <path id="Path_127" data-name="Path 127" d="M416.733,1009.086c-1.8-.7-2.374-1.244-2.374-2.256,0-.852.677-1.711,2.19-1.711a4.378,4.378,0,0,1,2.262.568l.163.1.544-1.608-.108-.063a5.585,5.585,0,0,0-2.806-.63c-2.457,0-4.173,1.451-4.173,3.526,0,1.674,1.075,2.845,3.382,3.683,1.635.611,2.244,1.237,2.244,2.31,0,1.215-.939,1.968-2.449,1.968a5.272,5.272,0,0,1-2.777-.787l-.167-.107-.517,1.645.1.063a6.6,6.6,0,0,0,3.256.837c3.311,0,4.485-2.019,4.485-3.748C419.983,1011.1,419.042,1010,416.733,1009.086Z" transform="translate(-377.961 -1003.488)" fill="#1b2b50"/>
      <path id="Path_128" data-name="Path 128" d="M452.318,1010.439l-1.89.593v1.6h-1.383v1.54h1.383v4.717a3.6,3.6,0,0,0,.667,2.444,2.47,2.47,0,0,0,1.864.732,4.54,4.54,0,0,0,1.489-.23l.109-.038-.092-1.543-.185.057a2.9,2.9,0,0,1-.9.1c-.747,0-1.065-.472-1.065-1.581v-4.661h2.323v-1.54h-2.324Z" transform="translate(-406.827 -1008.926)" fill="#1b2b50"/>
      <path id="Path_129" data-name="Path 129" d="M480.245,1019.58c-2.7,0-4.578,2.012-4.578,4.891,0,2.793,1.822,4.745,4.431,4.745h.018a4.542,4.542,0,0,0,4.578-4.91,4.867,4.867,0,0,0-1.228-3.407A4.287,4.287,0,0,0,480.245,1019.58Zm-.056,1.521c1.733,0,2.522,1.69,2.522,3.26,0,1.931-1.077,3.333-2.559,3.333h-.019c-1.461,0-2.522-1.378-2.522-3.277,0-1.65.8-3.316,2.576-3.316Z" transform="translate(-427.655 -1016.076)" fill="#1b2b50"/>
      <path id="Path_130" data-name="Path 130" d="M527.006,1019.679l-.116-.029a1.846,1.846,0,0,0-.479-.06A2.748,2.748,0,0,0,524,1021.14l-.057-1.348H522.21l.011.162c.051.762.073,1.619.073,2.774l-.018,6.294H524.2v-4.91a4.965,4.965,0,0,1,.053-.747,2.13,2.13,0,0,1,2.027-1.942,4.911,4.911,0,0,1,.517.032l.206.022Z" transform="translate(-464.068 -1016.085)" fill="#1b2b50"/>
      <path id="Path_131" data-name="Path 131" d="M548.487,1019.5c-2.565,0-4.356,2.049-4.356,4.984a4.308,4.308,0,0,0,4.541,4.652,7.394,7.394,0,0,0,3.05-.585l.116-.052-.37-1.437-.161.065a5.969,5.969,0,0,1-2.414.432,2.678,2.678,0,0,1-2.886-2.793l6.219.019.025-.123a4.279,4.279,0,0,0,.058-.8C552.308,1021.847,551.307,1019.5,548.487,1019.5Zm-.128,1.466a1.9,1.9,0,0,1,1.415.54,2.742,2.742,0,0,1,.664,1.793h-4.394a2.459,2.459,0,0,1,2.316-2.333Z" transform="translate(-481.217 -1016.015)" fill="#1b2b50"/>
    </g>
    <g id="Group_22" data-name="Group 22">
      <path id="Path_132" data-name="Path 132" d="M255.082,964.006a14.006,14.006,0,0,1,1.848-.125,4.123,4.123,0,0,1,2.713.742,2.636,2.636,0,0,1,.954,2.173,3.051,3.051,0,0,1-.964,2.343,4.471,4.471,0,0,1-2.971.868,13.365,13.365,0,0,1-1.58-.072Zm.875,5.338a6.226,6.226,0,0,0,.874.036c1.848.008,2.851-.93,2.851-2.557.01-1.44-.884-2.325-2.712-2.325a5.485,5.485,0,0,0-1.013.08Z" transform="translate(-255.082 -963.604)" fill="#1b2b50"/>
      <path id="Path_133" data-name="Path 133" d="M286.369,975.965a2.172,2.172,0,0,1-2.305-2.226,2.232,2.232,0,0,1,2.384-2.3,2.155,2.155,0,0,1,2.315,2.218,2.24,2.24,0,0,1-2.384,2.307Zm.03-.59a1.54,1.54,0,0,0,1.461-1.69,1.47,1.47,0,1,0-1.471,1.69Z" transform="translate(-277.756 -969.517)" fill="#1b2b50"/>
      <path id="Path_134" data-name="Path 134" d="M308.795,971.891l.646,2.191c.129.483.258.939.348,1.386h.03c.109-.438.268-.9.427-1.377l.785-2.2h.735l.745,2.164c.178.51.318.975.427,1.413h.03a11.955,11.955,0,0,1,.368-1.4l.685-2.173h.865l-1.55,4.328h-.795l-.735-2.065a14.177,14.177,0,0,1-.428-1.431h-.02a11.893,11.893,0,0,1-.437,1.44l-.775,2.056h-.795l-1.452-4.328Z" transform="translate(-296.404 -969.87)" fill="#1b2b50"/>
      <path id="Path_135" data-name="Path 135" d="M343.868,972.7c0-.457-.01-.814-.04-1.172h.775l.049.707h.02a1.821,1.821,0,0,1,1.589-.805,1.645,1.645,0,0,1,1.7,1.842v2.584h-.873v-2.494c0-.7-.289-1.288-1.113-1.288a1.248,1.248,0,0,0-1.172.805,1.059,1.059,0,0,0-.06.367v2.611h-.874Z" transform="translate(-324.512 -969.51)" fill="#1b2b50"/>
      <path id="Path_136" data-name="Path 136" d="M369.346,962.607h.874v6.348h-.874Z" transform="translate(-344.476 -962.607)" fill="#1b2b50"/>
      <path id="Path_137" data-name="Path 137" d="M380.737,975.965a2.172,2.172,0,0,1-2.3-2.226,2.232,2.232,0,0,1,2.384-2.3,2.155,2.155,0,0,1,2.315,2.218,2.241,2.241,0,0,1-2.384,2.307Zm.029-.59a1.54,1.54,0,0,0,1.461-1.69,1.47,1.47,0,1,0-1.471,1.69Z" transform="translate(-351.584 -969.517)" fill="#1b2b50"/>
      <path id="Path_138" data-name="Path 138" d="M407.122,974.828a6.516,6.516,0,0,0,.07,1.037h-.785l-.079-.544H406.3a1.849,1.849,0,0,1-1.47.644,1.311,1.311,0,0,1-1.47-1.243c0-1.046,1.033-1.618,2.891-1.611v-.089c0-.358-.109-1.01-1.093-1a2.509,2.509,0,0,0-1.262.322l-.2-.527a3.389,3.389,0,0,1,1.59-.375,1.609,1.609,0,0,1,1.838,1.77Zm-.854-1.172c-.954-.018-2.037.134-2.037.974a.731.731,0,0,0,.815.751,1.212,1.212,0,0,0,1.182-.725.724.724,0,0,0,.04-.25Z" transform="translate(-371.084 -969.517)" fill="#1b2b50"/>
      <path id="Path_139" data-name="Path 139" d="M430,962.607v5.231c0,.384.011.823.04,1.118h-.784l-.04-.751h-.02a1.8,1.8,0,0,1-1.629.849,2.064,2.064,0,0,1-2.068-2.2,2.157,2.157,0,0,1,2.155-2.325,1.653,1.653,0,0,1,1.451.653h.02v-2.575Zm-.874,3.782a1.307,1.307,0,0,0-.04-.339,1.264,1.264,0,0,0-1.262-.9,1.481,1.481,0,0,0-1.441,1.663,1.436,1.436,0,0,0,1.421,1.609,1.3,1.3,0,0,0,1.282-.938,1.227,1.227,0,0,0,.04-.34Z" transform="translate(-388.405 -962.607)" fill="#1b2b50"/>
      <path id="Path_140" data-name="Path 140" d="M463.225,975.965a2.172,2.172,0,0,1-2.3-2.226,2.233,2.233,0,0,1,2.384-2.3,2.155,2.155,0,0,1,2.315,2.218,2.241,2.241,0,0,1-2.384,2.307Zm.03-.59a1.54,1.54,0,0,0,1.46-1.69,1.47,1.47,0,1,0-1.47,1.69Z" transform="translate(-416.118 -969.517)" fill="#1b2b50"/>
      <path id="Path_141" data-name="Path 141" d="M487.438,972.7c0-.457-.01-.814-.04-1.172h.775l.05.707h.02a1.821,1.821,0,0,1,1.589-.805,1.646,1.646,0,0,1,1.7,1.842v2.584h-.875v-2.494c0-.7-.288-1.288-1.113-1.288a1.249,1.249,0,0,0-1.172.805,1.063,1.063,0,0,0-.059.367v2.611h-.874Z" transform="translate(-436.833 -969.51)" fill="#1b2b50"/>
      <path id="Path_142" data-name="Path 142" d="M521.684,967.127v1.037h1.251v.6h-1.251V971.1c0,.536.169.841.656.841a1.8,1.8,0,0,0,.507-.054l.04.6a2.622,2.622,0,0,1-.775.108,1.324,1.324,0,0,1-.944-.331,1.567,1.567,0,0,1-.338-1.136v-2.36h-.745v-.6h.745v-.8Z" transform="translate(-462.404 -966.143)" fill="#1b2b50"/>
      <path id="Path_143" data-name="Path 143" d="M537.7,962.607h.874v2.7h.02a1.483,1.483,0,0,1,.626-.554,1.846,1.846,0,0,1,.894-.224,1.645,1.645,0,0,1,1.679,1.85v2.575h-.873v-2.486c0-.707-.288-1.288-1.113-1.288a1.257,1.257,0,0,0-1.173.788.867.867,0,0,0-.06.375v2.611h-.874Z" transform="translate(-476.19 -962.607)" fill="#1b2b50"/>
      <path id="Path_144" data-name="Path 144" d="M562.284,973.8a1.465,1.465,0,0,0,1.64,1.5,3.646,3.646,0,0,0,1.332-.215l.159.554a4.3,4.3,0,0,1-1.611.277,2.133,2.133,0,0,1-2.365-2.182A2.2,2.2,0,0,1,563.7,971.4a1.894,1.894,0,0,1,1.977,2.039,1.811,1.811,0,0,1-.029.375Zm2.554-.563a1.161,1.161,0,0,0-1.2-1.279,1.361,1.361,0,0,0-1.341,1.279Z" transform="translate(-494.758 -969.482)" fill="#1b2b50"/>
    </g>
  </g>
</svg>
