<svg id="Group_4044" data-name="Group 4044" xmlns="http://www.w3.org/2000/svg" width="172.342" height="56.376" viewBox="0 0 172.342 56.376">
  <path id="Path_121" data-name="Path 121" d="M268.983,984.581a7.618,7.618,0,0,1-7.617,7.619H104.26a7.62,7.62,0,0,1-7.619-7.619V943.443a7.619,7.619,0,0,1,7.619-7.619H261.367a7.618,7.618,0,0,1,7.617,7.619Z" transform="translate(-96.641 -935.825)"/>
  <g id="Group_20" data-name="Group 20" transform="translate(11.561 8.764)">
    <path id="Path_122" data-name="Path 122" d="M165.019,1009.291A27.919,27.919,0,0,1,162.5,1014c-1.639,2.5-3.949,5.6-6.811,5.629-2.544.023-3.2-1.656-6.649-1.637s-4.173,1.666-6.717,1.643c-2.862-.026-5.051-2.832-6.69-5.327-4.584-6.977-5.062-15.166-2.236-19.518a10.142,10.142,0,0,1,8.157-4.9c3.034,0,4.941,1.664,7.45,1.664,2.433,0,3.916-1.667,7.423-1.667a9.9,9.9,0,0,1,7.462,3.94A8.539,8.539,0,0,0,165.019,1009.291Z" transform="translate(-131.637 -980.791)" fill="#fff"/>
    <g id="Group_19" data-name="Group 19" transform="translate(16.045)">
      <path id="Path_123" data-name="Path 123" d="M186.287,968.662a8.515,8.515,0,0,0,1.891-6.307,9.2,9.2,0,0,0-5.939,3.194A7.9,7.9,0,0,0,180.3,971.7,7.765,7.765,0,0,0,186.287,968.662Z" transform="translate(-180.207 -962.355)" fill="#fff"/>
    </g>
  </g>
  <g id="Group_23" data-name="Group 23" transform="translate(52.34 8.847)">
    <g id="Group_21" data-name="Group 21" transform="translate(0 13.505)">
      <path id="Path_124" data-name="Path 124" d="M261.648,1004.42l-6.566,19.326h3.007l1.96-5.934h6.357l2.016,5.934h3.09l-6.594-19.326Zm1.558,3.178c.222.862.461,1.758.768,2.727l1.769,5.124h-5.036l1.745-5.158C262.718,1009.454,262.97,1008.551,263.205,1007.6Z" transform="translate(-255.082 -1004.112)" fill="#fff"/>
      <path id="Path_125" data-name="Path 125" d="M315.454,1019.586a5.471,5.471,0,0,0-4.649,2.23l-.117-1.922h-2.674l.016.246c.079,1.2.112,2.515.112,4.408v14.9h2.924v-6.952a5.134,5.134,0,0,0,4,1.718,6.028,6.028,0,0,0,4.431-1.884,7.989,7.989,0,0,0,1.956-5.624,7.778,7.778,0,0,0-1.7-5.135A5.564,5.564,0,0,0,315.454,1019.586Zm-.728,2.421c2.607,0,3.773,2.415,3.773,4.808,0,3.086-1.489,5-3.884,5a3.545,3.545,0,0,1-3.445-2.714,3.728,3.728,0,0,1-.1-.946v-2.351a4.406,4.406,0,0,1,.093-.722c.015-.08.03-.16.042-.237A3.7,3.7,0,0,1,314.725,1022.007Z" transform="translate(-290.528 -1014.268)" fill="#fff"/>
      <path id="Path_126" data-name="Path 126" d="M361.035,1019.586a5.473,5.473,0,0,0-4.649,2.23l-.117-1.922H353.6l.015.246c.079,1.2.113,2.515.113,4.408v14.9h2.924v-6.952a5.132,5.132,0,0,0,4,1.718,6.036,6.036,0,0,0,4.433-1.884,8,8,0,0,0,1.955-5.624,7.779,7.779,0,0,0-1.7-5.135A5.561,5.561,0,0,0,361.035,1019.586Zm-.728,2.421c2.605,0,3.772,2.415,3.772,4.808,0,3.086-1.49,5-3.884,5a3.545,3.545,0,0,1-3.445-2.714,3.73,3.73,0,0,1-.1-.946v-2.351a4.344,4.344,0,0,1,.093-.724c.015-.079.029-.158.042-.235A3.7,3.7,0,0,1,360.307,1022.007Z" transform="translate(-321.053 -1014.268)" fill="#fff"/>
      <path id="Path_127" data-name="Path 127" d="M419.106,1011.985c-2.729-1.057-3.6-1.888-3.6-3.423,0-1.293,1.027-2.6,3.324-2.6a6.643,6.643,0,0,1,3.433.862l.248.153.825-2.44-.163-.1a8.473,8.473,0,0,0-4.258-.956c-3.729,0-6.333,2.2-6.333,5.352,0,2.542,1.631,4.318,5.132,5.59,2.482.928,3.405,1.878,3.405,3.507,0,1.844-1.425,2.988-3.717,2.988a8,8,0,0,1-4.215-1.2l-.254-.162-.785,2.5.144.1a10.016,10.016,0,0,0,4.942,1.27c5.025,0,6.807-3.064,6.807-5.688C424.038,1015.036,422.61,1013.368,419.106,1011.985Z" transform="translate(-360.26 -1003.488)" fill="#fff"/>
      <path id="Path_128" data-name="Path 128" d="M454.012,1010.439l-2.868.9v2.429h-2.1v2.337h2.1v7.158a5.472,5.472,0,0,0,1.012,3.71,3.748,3.748,0,0,0,2.829,1.111,6.887,6.887,0,0,0,2.26-.349l.164-.058-.14-2.341-.281.086a4.4,4.4,0,0,1-1.36.157c-1.133,0-1.617-.717-1.617-2.4v-7.074h3.527v-2.337h-3.527Z" transform="translate(-384.971 -1008.143)" fill="#fff"/>
      <path id="Path_129" data-name="Path 129" d="M482.61,1019.586c-4.091,0-6.948,3.054-6.948,7.424,0,4.24,2.765,7.2,6.724,7.2h.027c3.347,0,6.948-2.332,6.948-7.452a7.388,7.388,0,0,0-1.863-5.172A6.508,6.508,0,0,0,482.61,1019.586Zm-.084,2.308c2.63,0,3.828,2.565,3.828,4.948,0,2.931-1.634,5.059-3.883,5.059h-.028c-2.217,0-3.827-2.092-3.827-4.974C478.615,1024.422,479.824,1021.894,482.526,1021.894Z" transform="translate(-402.795 -1014.268)" fill="#fff"/>
      <path id="Path_130" data-name="Path 130" d="M529.49,1019.722l-.176-.045a2.815,2.815,0,0,0-.727-.091,4.171,4.171,0,0,0-3.666,2.354l-.086-2.046h-2.624l.017.246c.078,1.157.11,2.457.11,4.21l-.027,9.552h2.924v-7.452a7.557,7.557,0,0,1,.081-1.133,3.232,3.232,0,0,1,3.076-2.946,7.5,7.5,0,0,1,.785.049l.313.032Z" transform="translate(-433.967 -1014.268)" fill="#fff"/>
      <path id="Path_131" data-name="Path 131" d="M550.742,1019.5c-3.892,0-6.611,3.11-6.611,7.564,0,4.288,2.7,7.06,6.891,7.06a11.217,11.217,0,0,0,4.629-.888l.176-.079-.562-2.179-.244.1a9.064,9.064,0,0,1-3.664.655,4.065,4.065,0,0,1-4.38-4.24l9.438.028.038-.187a6.5,6.5,0,0,0,.088-1.22C556.543,1023.064,555.024,1019.5,550.742,1019.5Zm-.195,2.225a2.885,2.885,0,0,1,2.147.819,4.162,4.162,0,0,1,1.007,2.722h-6.669C547.3,1023.579,548.36,1021.727,550.547,1021.727Z" transform="translate(-448.646 -1014.212)" fill="#fff"/>
    </g>
    <g id="Group_22" data-name="Group 22">
      <path id="Path_132" data-name="Path 132" d="M255.082,964.07a21.328,21.328,0,0,1,2.8-.189A6.258,6.258,0,0,1,262,965.007a4,4,0,0,1,1.448,3.3,4.63,4.63,0,0,1-1.463,3.556,6.785,6.785,0,0,1-4.509,1.317,20.282,20.282,0,0,1-2.4-.109Zm1.327,8.1a9.422,9.422,0,0,0,1.327.054c2.8.013,4.327-1.412,4.327-3.881.015-2.185-1.342-3.529-4.116-3.529a8.349,8.349,0,0,0-1.538.122Z" transform="translate(-255.082 -963.46)" fill="#fff"/>
      <path id="Path_133" data-name="Path 133" d="M287.562,978.307a3.3,3.3,0,0,1-3.5-3.379,3.388,3.388,0,0,1,3.619-3.488,3.27,3.27,0,0,1,3.513,3.365,3.4,3.4,0,0,1-3.618,3.5Zm.045-.9a2.337,2.337,0,0,0,2.217-2.565,2.232,2.232,0,1,0-2.232,2.565Z" transform="translate(-274.49 -968.522)" fill="#fff"/>
      <path id="Path_134" data-name="Path 134" d="M309.258,971.891l.98,3.325c.2.733.392,1.425.528,2.1h.045c.166-.665.407-1.371.648-2.09l1.191-3.339h1.116l1.131,3.284c.271.774.482,1.479.648,2.145h.045a18.165,18.165,0,0,1,.558-2.131l1.04-3.3H318.5l-2.352,6.568h-1.206l-1.116-3.135a21.515,21.515,0,0,1-.649-2.171h-.03a18.043,18.043,0,0,1-.664,2.185l-1.176,3.121H310.1l-2.2-6.568Z" transform="translate(-290.452 -968.824)" fill="#fff"/>
      <path id="Path_135" data-name="Path 135" d="M343.889,973.367c0-.692-.015-1.235-.061-1.778H345l.075,1.073h.03a2.764,2.764,0,0,1,2.413-1.222,2.5,2.5,0,0,1,2.578,2.8v3.922h-1.326v-3.786c0-1.059-.438-1.954-1.69-1.954a1.893,1.893,0,0,0-1.779,1.221,1.608,1.608,0,0,0-.091.556v3.963h-1.327Z" transform="translate(-314.511 -968.522)" fill="#fff"/>
      <path id="Path_136" data-name="Path 136" d="M369.346,962.607h1.327v9.635h-1.327Z" transform="translate(-331.6 -962.607)" fill="#fff"/>
      <path id="Path_137" data-name="Path 137" d="M381.93,978.307a3.3,3.3,0,0,1-3.5-3.379,3.388,3.388,0,0,1,3.619-3.488,3.271,3.271,0,0,1,3.513,3.365,3.4,3.4,0,0,1-3.619,3.5Zm.045-.9a2.337,2.337,0,0,0,2.217-2.565,2.232,2.232,0,1,0-2.232,2.565Z" transform="translate(-337.684 -968.522)" fill="#fff"/>
      <path id="Path_138" data-name="Path 138" d="M409.072,976.583a9.9,9.9,0,0,0,.106,1.574h-1.192l-.121-.827h-.045a2.806,2.806,0,0,1-2.232.977,1.99,1.99,0,0,1-2.232-1.887c0-1.588,1.568-2.457,4.388-2.443v-.135c0-.543-.165-1.534-1.658-1.52a3.81,3.81,0,0,0-1.915.488l-.3-.8a5.14,5.14,0,0,1,2.413-.57c2.247,0,2.789,1.37,2.789,2.687Zm-1.3-1.778c-1.448-.027-3.091.2-3.091,1.479a1.109,1.109,0,0,0,1.237,1.14,1.84,1.84,0,0,0,1.794-1.1,1.1,1.1,0,0,0,.061-.38Z" transform="translate(-354.376 -968.522)" fill="#fff"/>
      <path id="Path_139" data-name="Path 139" d="M432.327,962.607v7.939c0,.583.016,1.249.06,1.7H431.2l-.06-1.14h-.03a2.731,2.731,0,0,1-2.473,1.289,3.132,3.132,0,0,1-3.137-3.339,3.275,3.275,0,0,1,3.272-3.528,2.51,2.51,0,0,1,2.2.991H431v-3.909ZM431,968.347a1.988,1.988,0,0,0-.06-.515,1.918,1.918,0,0,0-1.915-1.371,2.247,2.247,0,0,0-2.187,2.524,2.179,2.179,0,0,0,2.156,2.442A1.975,1.975,0,0,0,430.939,970a1.861,1.861,0,0,0,.06-.516Z" transform="translate(-369.201 -962.607)" fill="#fff"/>
      <path id="Path_140" data-name="Path 140" d="M464.418,978.307a3.3,3.3,0,0,1-3.5-3.379,3.389,3.389,0,0,1,3.619-3.488,3.27,3.27,0,0,1,3.514,3.365,3.4,3.4,0,0,1-3.618,3.5Zm.046-.9a2.337,2.337,0,0,0,2.216-2.565,2.231,2.231,0,1,0-2.231,2.565Z" transform="translate(-392.923 -968.522)" fill="#fff"/>
      <path id="Path_141" data-name="Path 141" d="M487.459,973.367c0-.692-.016-1.235-.061-1.778h1.176l.076,1.073h.03a2.764,2.764,0,0,1,2.412-1.222,2.5,2.5,0,0,1,2.579,2.8v3.922h-1.327v-3.786c0-1.059-.437-1.954-1.689-1.954a1.9,1.9,0,0,0-1.78,1.221,1.617,1.617,0,0,0-.09.556v3.963h-1.327Z" transform="translate(-410.654 -968.522)" fill="#fff"/>
      <path id="Path_142" data-name="Path 142" d="M522.512,967.127V968.7h1.9v.909h-1.9v3.542c0,.814.257,1.276,1,1.276a2.727,2.727,0,0,0,.769-.082l.06.909a3.986,3.986,0,0,1-1.176.163,2.009,2.009,0,0,1-1.433-.5,2.384,2.384,0,0,1-.512-1.724V969.61h-1.131V968.7h1.131v-1.208Z" transform="translate(-432.543 -965.634)" fill="#fff"/>
      <path id="Path_143" data-name="Path 143" d="M537.705,962.607h1.327v4.1h.031a2.25,2.25,0,0,1,.95-.841,2.8,2.8,0,0,1,1.357-.339,2.5,2.5,0,0,1,2.548,2.809v3.908h-1.327v-3.773c0-1.072-.437-1.954-1.689-1.954a1.907,1.907,0,0,0-1.78,1.194,1.313,1.313,0,0,0-.091.57v3.963h-1.327Z" transform="translate(-444.343 -962.607)" fill="#fff"/>
      <path id="Path_144" data-name="Path 144" d="M562.724,975.049a2.224,2.224,0,0,0,2.488,2.28,5.535,5.535,0,0,0,2.022-.326l.241.841a6.527,6.527,0,0,1-2.443.421c-2.232,0-3.589-1.344-3.589-3.311a3.344,3.344,0,0,1,3.438-3.556,2.875,2.875,0,0,1,3,3.095,2.757,2.757,0,0,1-.045.569Zm3.876-.855a1.762,1.762,0,0,0-1.825-1.941,2.066,2.066,0,0,0-2.036,1.941Z" transform="translate(-460.239 -968.494)" fill="#fff"/>
    </g>
  </g>
</svg>
