<svg id="Component_4_25" data-name="Component 4 – 25" xmlns="http://www.w3.org/2000/svg" width="27" height="27" viewBox="0 0 27 27">
  <circle id="Ellipse_169" data-name="Ellipse 169" cx="13.5" cy="13.5" r="13.5" fill="#fff"/>
  <path id="facebook" d="M13.974,17.865l.009-5.31H12.6a.325.325,0,0,1-.325-.324l-.007-1.712a.326.326,0,0,1,.326-.327h1.377V8.539a2.7,2.7,0,0,1,2.884-2.964h1.4a.326.326,0,0,1,.326.326V7.344a.326.326,0,0,1-.325.326H17.4c-.931,0-1.111.442-1.111,1.092v1.432h2.046a.325.325,0,0,1,.323.364l-.2,1.712a.326.326,0,0,1-.323.287H16.3l-.009,5.31Z" transform="translate(-2.165 1.525)" fill="#2c406e"/>
</svg>
