<svg id="Component_4_25" data-name="Component 4 – 25" xmlns="http://www.w3.org/2000/svg" width="27" height="27" viewBox="0 0 27 27">
  <circle id="Ellipse_169" data-name="Ellipse 169" cx="13.5" cy="13.5" r="13.5" fill="#4267b2"/>
  <path id="facebook" d="M14.542,21.962l.012-7.08H12.715a.434.434,0,0,1-.434-.432l-.009-2.282a.434.434,0,0,1,.434-.436h1.836V9.527a3.6,3.6,0,0,1,3.846-3.952h1.873a.434.434,0,0,1,.434.434V7.933a.434.434,0,0,1-.434.434h-1.15c-1.241,0-1.482.59-1.482,1.456v1.909h2.728a.434.434,0,0,1,.431.485l-.27,2.282a.434.434,0,0,1-.431.383H17.642l-.012,7.08Z" transform="translate(-3.209 -0.452)" fill="#fff"/>
</svg>
