<svg xmlns="http://www.w3.org/2000/svg" width="143.043" height="37.393" viewBox="0 0 143.043 37.393">
  <g id="forbes" transform="translate(-65 -201.7)">
    <path id="XMLID_33_" d="M214.686,227.9a5.606,5.606,0,0,0-2.821.58,9.041,9.041,0,0,0-4.25,4.25l-.386.657.039-1.2c.039-.657.077-1.855.116-2.7l.039-1.507h-.27c-.309,0-10.51,2.048-10.819,2.164-.193.077-.232.155-.232.657s.039.58.232.618c.116.039.58.116,1.043.193a1.953,1.953,0,0,1,1.546.811c.7.889.811,2.512.811,9.273,0,5.525-.116,8.307-.386,9.158a2.256,2.256,0,0,1-1.893,1.777c-.309.077-.734.155-.927.193l-.348.077-.039.7c-.039.5,0,.734.116.811.077.039,3.555.077,7.728.077l7.612-.039.039-.811a3.186,3.186,0,0,0-.039-.811,12.986,12.986,0,0,1-2.7-.386c-.85-.348-1.275-1.121-1.468-2.7-.193-1.816-.348-6.414-.27-10.124.077-3.787.077-3.787.309-4.057a4.956,4.956,0,0,1,3.207-1.043,7.457,7.457,0,0,1,3.13.773,4.857,4.857,0,0,0,1.082.425c.155-.039,2.627-6.646,2.627-6.955C217.506,228.364,216.077,227.9,214.686,227.9Z" transform="translate(-80.444 -16.076)" fill="#33629a"/>
    <path id="XMLID_36_" d="M156.116,239.462c-.541-4.559-2.473-7.882-5.68-9.776a14.229,14.229,0,0,0-12.751-.27,12.331,12.331,0,0,0-6.028,7.148,18.167,18.167,0,0,0,0,10.549,11.138,11.138,0,0,0,2.937,4.946,10.909,10.909,0,0,0,6.337,3.053,30.961,30.961,0,0,0,4.637,0c.425-.077,1.2-.232,1.661-.348,4.521-1.314,7.612-4.791,8.655-9.737A24.052,24.052,0,0,0,156.116,239.462Zm-11.437,13.678c-2.821.85-4.83-1.855-5.6-7.457a51.577,51.577,0,0,1,0-8.81c.541-4.521,1.932-6.8,4.134-6.8a2.8,2.8,0,0,1,2.318,1c1.855,1.855,2.7,5.41,2.7,10.974,0,4.444-.464,7.226-1.43,9.119A4.478,4.478,0,0,1,144.679,253.141Z" transform="translate(-40.421 -16.163)" fill="#33629a"/>
    <path id="XMLID_37_" d="M78.6,206.059h3.246c3.709,0,4.328.077,5.641.734,1.893.927,3.284,2.782,4.521,6.028.5,1.314.5,1.314,1.584.966l.734-.232L94.25,208.8c-.039-2.627-.116-4.946-.116-5.139l-.077-.425L79.876,203.2c-7.805,0-14.335,0-14.528.039l-.348.077.039.85.039.85,1.082.116a3.623,3.623,0,0,1,2.743,1.275c1.121,1.623,1.314,3.864,1.314,14.412,0,11.244-.232,13.987-1.314,15.378a2.922,2.922,0,0,1-2.28,1.2c-1.661.309-1.584.27-1.584,1.121,0,.464.039.734.116.773.193.077,18.315.077,18.508,0,.232-.077.232-1.43,0-1.546-.116-.039-.7-.155-1.352-.27a15.808,15.808,0,0,1-1.584-.348c-1.2-.5-1.855-1.932-2.087-4.521-.193-1.855-.309-5.294-.309-7.805v-2.318l1.121.039a14.262,14.262,0,0,1,4.057.425c1.082.464,1.932,1.777,2.357,3.632l.232.966.85.039.85.039V215.255l-.85.039-.85.039-.232.966c-.464,1.893-1.236,3.052-2.4,3.593a4.5,4.5,0,0,1-1.893.348c-.734.039-1.777.077-2.28.077h-.966v-3.053c0-3.052.155-9.583.27-10.587Z" transform="translate(0 -0.92)" fill="#33629a"/>
    <path id="XMLID_38_" d="M403.356,243.107c-.85-1.739-2.473-2.9-5.8-4.289-2.7-1.121-4.1-1.932-4.907-2.821a2.76,2.76,0,0,1-.811-2.434,3.337,3.337,0,0,1,.966-2.318,3.279,3.279,0,0,1,3.323-.889c2.2.464,3.632,2.009,4.869,5.255.425,1.159.5,1.2,1.275.889l.5-.193v-1.352c0-.734-.039-2.28-.077-3.439l-.077-2.087-.386-.155a21.43,21.43,0,0,0-8.423-1.159,9.889,9.889,0,0,0-6.607,2.859,7.437,7.437,0,0,0-2.2,5.95,6.522,6.522,0,0,0,1.855,4.521c1.082,1.121,2.009,1.661,4.675,2.7,4.25,1.662,5.409,2.666,5.371,4.714a3.607,3.607,0,0,1-2.589,3.593,7.494,7.494,0,0,1-2.937,0c-2.125-.541-3.748-2.4-5.139-5.8l-.348-.889-.425.039a1.845,1.845,0,0,0-.7.155l-.27.155.039,1.507c0,.811.039,2.55.077,3.825l.077,2.357.464.193a27.882,27.882,0,0,0,5.719,1.236c.232.039,1.468.039,2.782,0a10.734,10.734,0,0,0,3.555-.348q5.042-1.333,6.491-5.564a6.051,6.051,0,0,0,.386-2.434A8.049,8.049,0,0,0,403.356,243.107Z" transform="translate(-196.047 -16.175)" fill="#33629a"/>
    <path id="XMLID_42_" d="M338.624,229.006a12.6,12.6,0,0,0-10.355.232,12.077,12.077,0,0,0-6.26,7.419,14.1,14.1,0,0,0-.734,5.6,15.018,15.018,0,0,0,.271,2.937c1.2,5.332,4.83,8.926,9.93,9.853a19.875,19.875,0,0,0,4.791,0,12.853,12.853,0,0,0,4.675-1.816c1.43-.966,2.9-2.434,2.9-2.9,0-.27-.5-.927-.7-.927a3.172,3.172,0,0,0-.889.464,7.686,7.686,0,0,1-4.637,1.275,7.4,7.4,0,0,1-5.873-2.318,5.821,5.821,0,0,1-1.391-1.855A13.091,13.091,0,0,1,329,241.448l-.039-.889,7.612-.039,7.612-.039.039-.5a15.1,15.1,0,0,0-.077-1.661C343.685,233.8,341.792,230.629,338.624,229.006Zm-7.651,9.389-1.932.039v-.425a13.1,13.1,0,0,1,.155-1.352c.657-4.134,2.2-6.607,4.134-6.607,1.777,0,2.859,2.434,3.091,6.916l.077,1.275-1.777.077C333.716,238.318,332.016,238.357,330.973,238.4Z" transform="translate(-157.242 -16.139)" fill="#33629a"/>
    <path id="XMLID_48_" d="M265.324,212.4a9.645,9.645,0,0,0-2.318-.116,10.654,10.654,0,0,0-4.328.927c-.425.193-.811.386-.85.386s-.039-2.666,0-5.95c.039-4.637.039-5.95-.077-5.95-.348,0-10.819,2.009-10.935,2.087a1.064,1.064,0,0,0-.116.618c.039.58-.039.541,1.236.811a3.2,3.2,0,0,1,1,.386,3.583,3.583,0,0,1,1.043,1.893c.193.734.232,1.275.309,6.3.077,5.139.077,10.433-.077,20.092l-.077,4.019.734.155c1.082.232,4.212.773,5.216.889a39.854,39.854,0,0,0,6.1-.039,12.464,12.464,0,0,0,10.162-7.805,18.34,18.34,0,0,0,1.043-4.173,23.788,23.788,0,0,0-.193-5.8C272.2,216.46,269.265,213.215,265.324,212.4Zm-7.341,24.227c-.116-.348-.27-12.4-.232-17.195l.039-3.748.7-.193a6.673,6.673,0,0,1,1.623-.193,2.781,2.781,0,0,1,1.7.386c1.777.889,2.975,3.053,3.555,6.337a31.272,31.272,0,0,1,.039,6.028c-.464,3.593-1.623,6.491-3.207,7.882a4.06,4.06,0,0,1-1.932,1,4.581,4.581,0,0,1-1.7.039C258.176,236.9,258.1,236.862,257.983,236.63Z" transform="translate(-111.492 0)" fill="#33629a"/>
  </g>
</svg>
