<svg id="Component_5_25" data-name="Component 5 – 25" xmlns="http://www.w3.org/2000/svg" width="27" height="27" viewBox="0 0 27 27">
  <circle id="Ellipse_170" data-name="Ellipse 170" cx="13.5" cy="13.5" r="13.5" fill="#db4437"/>
  <g id="google-plus" transform="translate(3.15 6.615)">
    <path id="Path_2184" data-name="Path 2184" d="M7.463,90.728h3.323A4.224,4.224,0,1,1,9.639,86.2a.458.458,0,0,0,.623,0l1.22-1.149a.456.456,0,0,0,0-.663A6.779,6.779,0,0,0,6.94,82.521,6.8,6.8,0,1,0,13.6,89.707c.005-.045.009-1.562.009-1.562H7.463a.456.456,0,0,0-.456.456v1.671A.456.456,0,0,0,7.463,90.728Z" transform="translate(0 -82.519)" fill="#fff"/>
    <path id="Path_2185" data-name="Path 2185" d="M328.065,165.24v-1.632a.4.4,0,0,0-.4-.4h-1.374a.4.4,0,0,0-.4.4v1.632H324.26a.4.4,0,0,0-.4.4v1.374a.4.4,0,0,0,.4.4h1.633v1.632a.4.4,0,0,0,.4.4h1.374a.4.4,0,0,0,.4-.4v-1.632H329.7a.4.4,0,0,0,.4-.4V165.64a.4.4,0,0,0-.4-.4Z" transform="translate(-308.828 -159.463)" fill="#fff"/>
  </g>
</svg>
