<svg id="Group_4043" data-name="Group 4043" xmlns="http://www.w3.org/2000/svg" xmlns:xlink="http://www.w3.org/1999/xlink" width="172.346" height="56.371" viewBox="0 0 172.346 56.371">
  <defs>
    <clipPath id="clip-path">
      <path id="Path_96" data-name="Path 96" d="M158.949,343.153l-7.619-4.4-14.7-8.485c-.816-.471-1.629-.186-1.629.8v34.57c0,.738.581,1.056,1.29.647L151.33,357.6l7.618-4.4,7.323-4.227c.859-.5.777-1.177.052-1.568S158.949,343.153,158.949,343.153Z" transform="translate(-135.006 -330.047)" fill="none"/>
    </clipPath>
    <linearGradient id="linear-gradient" x1="0.5" x2="0.5" y2="1" gradientUnits="objectBoundingBox">
      <stop offset="0" stop-color="#316199"/>
      <stop offset="0.278" stop-color="#4c839c"/>
      <stop offset="0.764" stop-color="#79baa2"/>
      <stop offset="1" stop-color="#8bd0a5"/>
    </linearGradient>
    <linearGradient id="linear-gradient-2" y1="0.5" x2="1" y2="0.5" gradientUnits="objectBoundingBox">
      <stop offset="0" stop-color="#5dbc91"/>
      <stop offset="1" stop-color="#daef7e"/>
    </linearGradient>
    <linearGradient id="linear-gradient-3" x1="0.5" x2="0.5" y2="1" gradientUnits="objectBoundingBox">
      <stop offset="0" stop-color="#f91b1c"/>
      <stop offset="0.358" stop-color="#c61e48"/>
      <stop offset="0.79" stop-color="#8f2179"/>
      <stop offset="1" stop-color="#7a238d"/>
    </linearGradient>
    <linearGradient id="linear-gradient-4" x1="0.5" x2="0.5" y2="1" gradientUnits="objectBoundingBox">
      <stop offset="0" stop-color="#fa6c61"/>
      <stop offset="0.113" stop-color="#fa775f"/>
      <stop offset="0.711" stop-color="#fdae57"/>
      <stop offset="1" stop-color="#fec455"/>
    </linearGradient>
  </defs>
  <path id="Path_62" data-name="Path 62" d="M268.987,344.826a7.618,7.618,0,0,1-7.617,7.619H104.26a7.62,7.62,0,0,1-7.619-7.619V303.692a7.619,7.619,0,0,1,7.619-7.618H261.37a7.618,7.618,0,0,1,7.617,7.618Z" transform="translate(-96.641 -296.074)"/>
  <g id="PLAY" transform="translate(12.674 12.323)">
    <g id="Group_13" data-name="Group 13" clip-path="url(#clip-path)">
      <path id="Path_92" data-name="Path 92" d="M135.006,328.285v37.429L153.88,347Z" transform="translate(-135.006 -328.867)" fill="url(#linear-gradient)"/>
      <path id="Path_93" data-name="Path 93" d="M158.949,341.7l-7.619-4.4-16.324-9.425v.136l18.874,18.715Z" transform="translate(-135.006 -328.591)" fill="url(#linear-gradient-2)"/>
      <path id="Path_94" data-name="Path 94" d="M135.006,403.652v.136l16.324-9.426,7.618-4.4-5.069-5.026Z" transform="translate(-135.006 -366.805)" fill="url(#linear-gradient-3)"/>
      <path id="Path_95" data-name="Path 95" d="M197.209,369.721l-5.069,5.027,5.069,5.026,8.707-5.026Z" transform="translate(-173.266 -356.615)" fill="url(#linear-gradient-4)"/>
    </g>
  </g>
  <g id="Group_14" data-name="Group 14" transform="translate(129.813 21.682)">
    <path id="Path_97" data-name="Path 97" d="M484.433,384.214a4.707,4.707,0,0,1-1.941-.392,3.659,3.659,0,0,1-1.475-1.206H480.9a14.63,14.63,0,0,1,.119,1.807V388.9h-1.648V373.131h1.341l.228,1.49h.079a3.832,3.832,0,0,1,1.481-1.291,4.5,4.5,0,0,1,1.936-.4,4.023,4.023,0,0,1,3.342,1.48,7.882,7.882,0,0,1-.019,8.318A4.033,4.033,0,0,1,484.433,384.214Zm-.239-9.882a2.921,2.921,0,0,0-2.413.924,4.755,4.755,0,0,0-.765,2.94v.367a5.446,5.446,0,0,0,.765,3.283,2.909,2.909,0,0,0,2.453.988,2.552,2.552,0,0,0,2.211-1.142,5.419,5.419,0,0,0,.8-3.149,5.216,5.216,0,0,0-.8-3.123A2.631,2.631,0,0,0,484.194,374.332Z" transform="translate(-479.368 -368.562)" fill="#f9f9f9"/>
    <path id="Path_98" data-name="Path 98" d="M516.593,375.156h-1.649V359.7h1.649Z" transform="translate(-503.192 -359.703)" fill="#f9f9f9"/>
    <path id="Path_99" data-name="Path 99" d="M533.406,384.056l-.328-1.549H533a4.568,4.568,0,0,1-1.624,1.385,4.933,4.933,0,0,1-2.021.363,3.637,3.637,0,0,1-2.537-.834,3.042,3.042,0,0,1-.919-2.374q0-3.3,5.274-3.456l1.848-.06v-.675a2.756,2.756,0,0,0-.552-1.892,2.265,2.265,0,0,0-1.763-.611,7.179,7.179,0,0,0-3.079.834l-.507-1.262a7.75,7.75,0,0,1,1.763-.685,7.631,7.631,0,0,1,1.922-.248,4.147,4.147,0,0,1,2.885.864,3.609,3.609,0,0,1,.938,2.771v7.428Zm-3.724-1.161a3.349,3.349,0,0,0,2.418-.844,3.126,3.126,0,0,0,.879-2.364V378.7l-1.649.069a6,6,0,0,0-2.835.612,1.842,1.842,0,0,0-.869,1.683,1.7,1.7,0,0,0,.542,1.36A2.244,2.244,0,0,0,529.681,382.894Z" transform="translate(-510.526 -368.602)" fill="#f9f9f9"/>
    <path id="Path_100" data-name="Path 100" d="M555.222,373.533h1.767l2.384,6.207a23.731,23.731,0,0,1,.974,3.069h.08q.129-.507.541-1.734t2.7-7.543h1.769l-4.678,12.395a6.184,6.184,0,0,1-1.624,2.608,3.454,3.454,0,0,1-2.279.769,6.671,6.671,0,0,1-1.49-.168v-1.321a5.762,5.762,0,0,0,1.222.119,2.518,2.518,0,0,0,2.423-1.907l.605-1.549Z" transform="translate(-530.164 -368.964)" fill="#f9f9f9"/>
  </g>
  <g id="Group_16" data-name="Group 16" transform="translate(53.037 20.485)">
    <path id="Path_101" data-name="Path 101" d="M385.035,374.933a3.708,3.708,0,0,1-.3,6.306,1.6,1.6,0,0,0-.638,1.117,1.249,1.249,0,0,0,.593.979l.82.636c1,.843,1.911,1.617,1.911,3.189,0,2.14-2.072,4.3-5.987,4.3-3.3,0-4.895-1.57-4.895-3.257a3.276,3.276,0,0,1,1.753-2.778,9.813,9.813,0,0,1,4.348-1.048,2.382,2.382,0,0,1-.683-1.546,2.055,2.055,0,0,1,.228-.889c-.251.023-.5.046-.729.046a3.6,3.6,0,0,1-3.779-3.574,4.1,4.1,0,0,1,1.456-3.051,6.209,6.209,0,0,1,4.077-1.253H387.9l-1.457.82Zm-1.617,10.109a3.529,3.529,0,0,0-.523-.024,9.11,9.11,0,0,0-2.391.366,2.557,2.557,0,0,0-1.958,2.344c0,1.616,1.572,2.779,4.008,2.779,2.185,0,3.347-1.049,3.347-2.46C385.9,386.884,385.149,386.272,383.418,385.042Zm.661-4.326a2.3,2.3,0,0,0,.568-1.663c0-1.639-.978-4.188-2.867-4.188a2.127,2.127,0,0,0-1.594.752,2.63,2.63,0,0,0-.5,1.685c0,1.525.888,4.052,2.847,4.052A2.331,2.331,0,0,0,384.079,380.716Z" transform="translate(-335.354 -368.136)" fill="#f9f9f9"/>
    <path id="Path_102" data-name="Path 102" d="M347.619,384.023a5.364,5.364,0,0,1-5.546-5.366,5.632,5.632,0,0,1,5.888-5.522,5.314,5.314,0,0,1,5.431,5.364A5.554,5.554,0,0,1,347.619,384.023Zm2.841-1.841a4.112,4.112,0,0,0,.683-2.524c0-2-.954-5.819-3.773-5.819a3.166,3.166,0,0,0-2.045.774,3.439,3.439,0,0,0-1.047,2.774c0,2.249,1.114,5.952,3.865,5.952A2.9,2.9,0,0,0,350.46,382.182Z" transform="translate(-312.271 -367.481)" fill="#f9f9f9"/>
    <path id="Path_103" data-name="Path 103" d="M310.322,384.023a5.364,5.364,0,0,1-5.546-5.366,5.633,5.633,0,0,1,5.888-5.522A5.314,5.314,0,0,1,316.1,378.5,5.554,5.554,0,0,1,310.322,384.023Zm2.842-1.841a4.118,4.118,0,0,0,.682-2.524c0-2-.955-5.819-3.774-5.819a3.167,3.167,0,0,0-2.046.774,3.44,3.44,0,0,0-1.046,2.774c0,2.249,1.113,5.952,3.865,5.952A2.905,2.905,0,0,0,313.164,382.182Z" transform="translate(-287.294 -367.481)" fill="#f9f9f9"/>
    <path id="Path_104" data-name="Path 104" d="M267.6,373.237l-3.268.754a24.208,24.208,0,0,1-3.77.388c-6.308,0-8.707-4.639-8.707-8.273,0-4.433,3.4-8.545,9.233-8.545a13.156,13.156,0,0,1,3.5.48,8.911,8.911,0,0,1,3.017,1.417l-1.9,1.805-.8.182.571-.914a6.531,6.531,0,0,0-4.89-2.147c-3.611,0-6.331,2.744-6.331,6.742a8.082,8.082,0,0,0,8.089,8.34,6.806,6.806,0,0,0,2.9-.571v-3.679l-3.45.183,1.827-.984h4.845l-.593.571a.534.534,0,0,0-.229.365c-.024.206-.045.869-.045,1.1Z" transform="translate(-251.856 -357.051)" fill="#f9f9f9"/>
    <path id="Path_105" data-name="Path 105" d="M414.275,371.546c-.755-.069-.912-.205-.912-1.1V357.515c0-.049.008-.1.013-.147.092-.8.32-.937,1.03-1.348h-3.269l-1.715.823h1.747v14.111c0,.456-.09.525-.616,1.21H414.6l.845-.5C415.053,371.615,414.664,371.592,414.275,371.546Z" transform="translate(-357.371 -356.019)" fill="#f9f9f9"/>
    <path id="Path_106" data-name="Path 106" d="M435.473,383.232c-.249.136-.5.3-.747.409a5.286,5.286,0,0,1-2.2.431,4.85,4.85,0,0,1-3.019-.886,5.873,5.873,0,0,1-2.314-4.789,5.144,5.144,0,0,1,5.2-5.242,4.411,4.411,0,0,1,2.339.636,3.757,3.757,0,0,1,1.587,2.246l-5.332,2.157-1.748.136c.567,2.882,2.518,4.56,4.675,4.56a5.864,5.864,0,0,0,2.769-.793Zm-2.132-6.764c.43-.159.657-.3.657-.612a2.252,2.252,0,0,0-2.247-1.952c-.909,0-2.61.7-2.61,3.154,0,.386.045.794.069,1.2Z" transform="translate(-369.27 -367.495)" fill="#f9f9f9"/>
    <g id="Group_15" data-name="Group 15" transform="translate(67.717 5.661)">
      <path id="Path_107" data-name="Path 107" d="M457.523,373.311v1.5h-.182v-1.5h-.5v-.155h1.172v.155Z" transform="translate(-456.846 -373.156)" fill="#f9f9f9"/>
      <path id="Path_108" data-name="Path 108" d="M462.546,374.809V373.3h-.008l-.461,1.511h-.142l-.465-1.511h-.006v1.511H461.3v-1.653h.283l.421,1.336h.006l.415-1.336h.287v1.653Z" transform="translate(-459.827 -373.156)" fill="#f9f9f9"/>
    </g>
  </g>
  <g id="Group_17" data-name="Group 17" transform="translate(52.88 11.378)">
    <path id="Path_109" data-name="Path 109" d="M256.474,334.723h-1.135a7.534,7.534,0,0,0-.323-1.327h-1.639a6.859,6.859,0,0,0-.334,1.327h-1.068q0-.138.828-2.271a17.856,17.856,0,0,0,.829-2.349h1.341a19.62,19.62,0,0,0,.751,2.315A20.277,20.277,0,0,1,256.474,334.723Zm-1.64-2a20.072,20.072,0,0,1-.607-1.98h-.057q0,.139-.628,1.98Z" transform="translate(-251.974 -329.996)" fill="#fbfbfb"/>
    <path id="Path_110" data-name="Path 110" d="M271.728,334.723h-.877a8.641,8.641,0,0,0-.976-1.536,8.465,8.465,0,0,1-1.164-2.005h-.057a12.515,12.515,0,0,1,.089,1.405q0,.877.05,2.136h-.873q.054-1.1.053-2.417,0-1.3-.053-2.2h1.054a6.675,6.675,0,0,0,.876,1.5,8.84,8.84,0,0,1,1.072,1.892h.053a13.471,13.471,0,0,1-.085-1.419q0-.961-.05-1.973h.887q-.05.88-.05,2.2T271.728,334.723Z" transform="translate(-262.652 -329.996)" fill="#fbfbfb"/>
    <path id="Path_111" data-name="Path 111" d="M287.1,332.21a2.617,2.617,0,0,1-.646,1.76,2.255,2.255,0,0,1-1.81.753q-.525,0-1.448-.043.046-1.072.046-2.417,0-1.291-.046-2.2h.621q.153,0,.454-.011t.394-.011a2.392,2.392,0,0,1,1.858.639A2.208,2.208,0,0,1,287.1,332.21Zm-.969.153a1.71,1.71,0,0,0-.4-1.148,1.507,1.507,0,0,0-1.214-.466,3.759,3.759,0,0,0-.419.032q.036.71.036,1.483,0,.848.035,1.682a2.356,2.356,0,0,0,.462.046,1.341,1.341,0,0,0,1.13-.474A1.828,1.828,0,0,0,286.135,332.362Z" transform="translate(-272.885 -329.953)" fill="#fbfbfb"/>
    <path id="Path_112" data-name="Path 112" d="M301.791,334.68h-1.05a6.971,6.971,0,0,0-.632-1.551.827.827,0,0,0-.71-.295c-.137,0-.269,0-.394,0q0,.912.032,1.842h-.986q.046-1.072.046-2.417,0-1.291-.046-2.2h.614q.107,0,.445-.011t.626-.011q1.629,0,1.629,1.114a1.25,1.25,0,0,1-.93,1.231v.053a1.108,1.108,0,0,1,.628.559A12.349,12.349,0,0,1,301.791,334.68Zm-1.331-3.265q0-.706-.908-.706a3.092,3.092,0,0,0-.589.05q.039.55.039,1.434.195.007.33.007Q300.46,332.2,300.461,331.415Z" transform="translate(-282.83 -329.953)" fill="#fbfbfb"/>
    <path id="Path_113" data-name="Path 113" d="M315.614,332.112a2.549,2.549,0,0,1-.667,1.806,2.165,2.165,0,0,1-1.65.717,2.085,2.085,0,0,1-1.568-.659,2.317,2.317,0,0,1-.632-1.673,2.547,2.547,0,0,1,.667-1.806,2.164,2.164,0,0,1,1.65-.717,2.087,2.087,0,0,1,1.568.657A2.316,2.316,0,0,1,315.614,332.112Zm-.979.1a1.832,1.832,0,0,0-.38-1.2,1.169,1.169,0,0,0-.937-.461,1.082,1.082,0,0,0-.88.465,1.855,1.855,0,0,0-.362,1.174,1.827,1.827,0,0,0,.382,1.2,1.169,1.169,0,0,0,.935.463,1.081,1.081,0,0,0,.88-.467A1.856,1.856,0,0,0,314.635,332.214Z" transform="translate(-291.566 -329.78)" fill="#fbfbfb"/>
    <path id="Path_114" data-name="Path 114" d="M328.809,334.723h-1q.046-1.1.046-2.417,0-1.3-.046-2.2h1q-.046.894-.046,2.2Q328.763,333.645,328.809,334.723Z" transform="translate(-302.755 -329.996)" fill="#fbfbfb"/>
    <path id="Path_115" data-name="Path 115" d="M338.5,332.21a2.617,2.617,0,0,1-.646,1.76,2.256,2.256,0,0,1-1.81.753q-.525,0-1.448-.043.046-1.072.046-2.417,0-1.291-.046-2.2h.621q.153,0,.454-.011t.394-.011a2.392,2.392,0,0,1,1.858.639A2.21,2.21,0,0,1,338.5,332.21Zm-.969.153a1.712,1.712,0,0,0-.4-1.148,1.507,1.507,0,0,0-1.214-.466,3.754,3.754,0,0,0-.419.032q.036.71.036,1.483,0,.848.035,1.682a2.356,2.356,0,0,0,.461.046,1.341,1.341,0,0,0,1.13-.474A1.828,1.828,0,0,0,337.534,332.362Z" transform="translate(-307.305 -329.953)" fill="#fbfbfb"/>
    <path id="Path_116" data-name="Path 116" d="M357.95,334.723h-1.135a7.48,7.48,0,0,0-.323-1.327h-1.639a6.847,6.847,0,0,0-.333,1.327H353.45q0-.138.828-2.271a17.813,17.813,0,0,0,.828-2.349h1.341a19.581,19.581,0,0,0,.751,2.315A20.367,20.367,0,0,1,357.95,334.723Zm-1.639-2a20.148,20.148,0,0,1-.607-1.98h-.057a20.771,20.771,0,0,1-.628,1.98Z" transform="translate(-319.928 -329.996)" fill="#fbfbfb"/>
    <path id="Path_117" data-name="Path 117" d="M372.767,331.27a1.383,1.383,0,0,1-.63,1.253,2.8,2.8,0,0,1-1.545.4q-.167,0-.238-.007,0,.667.039,1.76h-1q.046-1.025.046-2.417,0-1.277-.046-2.2h.618q.131,0,.5-.011t.646-.011a2.031,2.031,0,0,1,1.139.305A1.032,1.032,0,0,1,372.767,331.27Zm-.916.195q0-.759-1.008-.759a2.84,2.84,0,0,0-.532.053q.039.67.039,1.519c.059,0,.128.007.206.007Q371.852,332.284,371.852,331.464Z" transform="translate(-330.607 -329.953)" fill="#fbfbfb"/>
    <path id="Path_118" data-name="Path 118" d="M385.651,331.27a1.384,1.384,0,0,1-.63,1.253,2.8,2.8,0,0,1-1.546.4c-.111,0-.19,0-.238-.007q0,.667.039,1.76h-1q.046-1.025.046-2.417,0-1.277-.046-2.2h.617q.131,0,.5-.011t.646-.011a2.031,2.031,0,0,1,1.139.305A1.032,1.032,0,0,1,385.651,331.27Zm-.915.195q0-.759-1.008-.759a2.839,2.839,0,0,0-.532.053q.039.67.039,1.519c.059,0,.128.007.206.007Q384.736,332.284,384.736,331.464Z" transform="translate(-339.234 -329.953)" fill="#fbfbfb"/>
    <path id="Path_119" data-name="Path 119" d="M404.392,332.112a2.548,2.548,0,0,1-.667,1.806,2.164,2.164,0,0,1-1.65.717,2.085,2.085,0,0,1-1.568-.659,2.319,2.319,0,0,1-.632-1.673,2.548,2.548,0,0,1,.667-1.806,2.165,2.165,0,0,1,1.65-.717,2.088,2.088,0,0,1,1.568.657A2.317,2.317,0,0,1,404.392,332.112Zm-.979.1a1.83,1.83,0,0,0-.38-1.2,1.168,1.168,0,0,0-.936-.461,1.083,1.083,0,0,0-.88.465,1.855,1.855,0,0,0-.362,1.174,1.827,1.827,0,0,0,.382,1.2,1.168,1.168,0,0,0,.935.463,1.08,1.08,0,0,0,.88-.467A1.855,1.855,0,0,0,403.413,332.214Z" transform="translate(-351.017 -329.78)" fill="#fbfbfb"/>
    <path id="Path_120" data-name="Path 120" d="M420.392,334.723h-.876a8.645,8.645,0,0,0-.976-1.536,8.47,8.47,0,0,1-1.164-2.005h-.056a12.58,12.58,0,0,1,.088,1.405q0,.877.05,2.136h-.873q.053-1.1.053-2.417,0-1.3-.053-2.2h1.054a6.686,6.686,0,0,0,.877,1.5,8.837,8.837,0,0,1,1.072,1.892h.053a13.388,13.388,0,0,1-.085-1.419q0-.961-.05-1.973h.887q-.05.88-.05,2.2T420.392,334.723Z" transform="translate(-362.206 -329.996)" fill="#fbfbfb"/>
  </g>
</svg>
