<svg id="Group_25" data-name="Group 25" xmlns="http://www.w3.org/2000/svg" width="113.805" height="37.227" viewBox="0 0 113.805 37.227">
  <path id="Path_62" data-name="Path 62" d="M210.446,328.27a5.031,5.031,0,0,1-5.029,5.031H101.672a5.032,5.032,0,0,1-5.031-5.031V301.105a5.031,5.031,0,0,1,5.031-5.031H205.417a5.031,5.031,0,0,1,5.029,5.031Z" transform="translate(-96.641 -296.074)" fill="#fff"/>
  <g id="PLAY" transform="translate(8.536 7.076)">
    <path id="Path_92" data-name="Path 92" d="M135.006,328.285v25.209l12.712-12.6Z" transform="translate(-135.006 -328.194)" fill="#1b2b50"/>
    <path id="Path_93" data-name="Path 93" d="M151.133,337.185,146,334.222l-11-6.348v.092l12.712,12.605Z" transform="translate(-135.006 -327.874)" fill="#1b2b50" stroke="#fff" stroke-width="0.5"/>
    <path id="Path_94" data-name="Path 94" d="M135.006,397.543v.092l11-6.349,5.131-2.962-3.414-3.385Z" transform="translate(-135.006 -372.241)" fill="#1b2b50" stroke="#fff" stroke-width="0.5"/>
    <path id="Path_95" data-name="Path 95" d="M195.554,369.721l-3.414,3.386,3.414,3.385,5.864-3.386Z" transform="translate(-179.428 -360.41)" fill="#1b2b50"/>
    <path id="Path_96" data-name="Path 96" d="M151.133,338.871,146,335.907l-9.9-5.715c-.55-.317-1.1-.125-1.1.538v23.285c0,.5.391.712.868.436S146,348.6,146,348.6l5.131-2.963,4.933-2.848c.579-.334.523-.793.035-1.056S151.133,338.871,151.133,338.871Z" transform="translate(-135.006 -329.56)" fill="none"/>
  </g>
  <g id="Group_14" data-name="Group 14" transform="translate(85.158 14.157)">
    <path id="Path_97" data-name="Path 97" d="M482.783,380.531a3.171,3.171,0,0,1-1.308-.264,2.465,2.465,0,0,1-.994-.813H480.4a9.84,9.84,0,0,1,.08,1.217v3.017h-1.11V373.066h.9l.154,1h.053a2.581,2.581,0,0,1,1-.87,3.028,3.028,0,0,1,1.3-.267,2.709,2.709,0,0,1,2.251,1,5.309,5.309,0,0,1-.013,5.6A2.717,2.717,0,0,1,482.783,380.531Zm-.161-6.656A1.963,1.963,0,0,0,481,374.5a3.217,3.217,0,0,0-.515,1.98v.247a3.668,3.668,0,0,0,.515,2.211,1.958,1.958,0,0,0,1.652.665,1.719,1.719,0,0,0,1.489-.769,3.651,3.651,0,0,0,.538-2.121,3.513,3.513,0,0,0-.538-2.1,1.772,1.772,0,0,0-1.517-.733Z" transform="translate(-479.372 -369.988)" fill="#1b2b50"/>
    <path id="Path_98" data-name="Path 98" d="M516.055,370.109h-1.111V359.7h1.111Z" transform="translate(-507.029 -359.7)" fill="#1b2b50"/>
    <path id="Path_99" data-name="Path 99" d="M530.941,380.445l-.221-1.044h-.053a3.076,3.076,0,0,1-1.094.933,3.322,3.322,0,0,1-1.361.245,2.449,2.449,0,0,1-1.709-.562,2.049,2.049,0,0,1-.619-1.6q0-2.221,3.552-2.328l1.245-.04V375.6a1.858,1.858,0,0,0-.372-1.274,1.529,1.529,0,0,0-1.187-.412,4.834,4.834,0,0,0-2.074.562l-.341-.85a5.218,5.218,0,0,1,1.188-.461,5.14,5.14,0,0,1,1.294-.167,2.794,2.794,0,0,1,1.943.582,2.427,2.427,0,0,1,.632,1.867v5Zm-2.508-.782a2.256,2.256,0,0,0,1.629-.569,2.105,2.105,0,0,0,.592-1.592v-.662l-1.111.047a4.049,4.049,0,0,0-1.91.412,1.24,1.24,0,0,0-.585,1.135,1.142,1.142,0,0,0,.365.916A1.512,1.512,0,0,0,528.432,379.663Z" transform="translate(-515.531 -370.036)" fill="#1b2b50"/>
    <path id="Path_100" data-name="Path 100" d="M555.222,373.533h1.19l1.606,4.181a15.971,15.971,0,0,1,.656,2.067h.054q.087-.342.364-1.168t1.816-5.08H562.1l-3.151,8.349a4.152,4.152,0,0,1-1.094,1.756,2.326,2.326,0,0,1-1.535.518,4.488,4.488,0,0,1-1-.113v-.89a3.88,3.88,0,0,0,.823.08,1.7,1.7,0,0,0,1.632-1.285l.408-1.043Z" transform="translate(-538.345 -370.455)" fill="#1b2b50"/>
  </g>
  <g id="Group_16" data-name="Group 16" transform="translate(34.536 13.338)">
    <path id="Path_101" data-name="Path 101" d="M382.263,374.663a2.5,2.5,0,0,1-.2,4.246,1.076,1.076,0,0,0-.429.752.841.841,0,0,0,.4.659l.552.428a2.671,2.671,0,0,1,1.287,2.148c0,1.441-1.4,2.9-4.033,2.9-2.224,0-3.3-1.058-3.3-2.193a2.206,2.206,0,0,1,1.181-1.871,6.61,6.61,0,0,1,2.929-.706,1.6,1.6,0,0,1-.46-1.042,1.384,1.384,0,0,1,.153-.6c-.169.016-.338.031-.491.031a2.425,2.425,0,0,1-2.545-2.407,2.759,2.759,0,0,1,.982-2.056,4.182,4.182,0,0,1,2.746-.844h3.16l-.984.554Zm-1.089,6.809a2.379,2.379,0,0,0-.352-.016,6.135,6.135,0,0,0-1.61.246,1.722,1.722,0,0,0-1.319,1.58c0,1.09,1.059,1.871,2.7,1.871,1.471,0,2.254-.707,2.254-1.657C382.846,382.711,382.341,382.3,381.174,381.471Zm.445-2.915a1.551,1.551,0,0,0,.382-1.12c0-1.1-.659-2.821-1.931-2.821a1.432,1.432,0,0,0-1.074.506,1.771,1.771,0,0,0-.337,1.135c0,1.027.6,2.729,1.918,2.729A1.57,1.57,0,0,0,381.619,378.556Z" transform="translate(-348.8 -370.083)" fill="#1b2b50"/>
    <path id="Path_102" data-name="Path 102" d="M345.808,380.465a3.613,3.613,0,0,1-3.735-3.614,3.794,3.794,0,0,1,3.966-3.72,3.579,3.579,0,0,1,3.658,3.613A3.741,3.741,0,0,1,345.808,380.465Zm1.914-1.24a2.77,2.77,0,0,0,.46-1.7c0-1.348-.643-3.919-2.542-3.919a2.133,2.133,0,0,0-1.378.521,2.317,2.317,0,0,0-.7,1.869c0,1.515.75,4.009,2.6,4.009A1.956,1.956,0,0,0,347.722,379.225Z" transform="translate(-322 -369.323)" fill="#1b2b50"/>
    <path id="Path_103" data-name="Path 103" d="M308.512,380.465a3.613,3.613,0,0,1-3.736-3.614,3.794,3.794,0,0,1,3.966-3.72,3.579,3.579,0,0,1,3.659,3.613A3.741,3.741,0,0,1,308.512,380.465Zm1.914-1.24a2.774,2.774,0,0,0,.459-1.7c0-1.348-.643-3.919-2.542-3.919a2.134,2.134,0,0,0-1.378.521,2.317,2.317,0,0,0-.7,1.869c0,1.515.75,4.009,2.6,4.009a1.958,1.958,0,0,0,1.562-.78Z" transform="translate(-293.001 -369.323)" fill="#1b2b50"/>
    <path id="Path_104" data-name="Path 104" d="M262.461,368.119l-2.2.508a16.316,16.316,0,0,1-2.539.261,5.469,5.469,0,0,1-5.864-5.572c0-2.986,2.293-5.756,6.219-5.756a8.86,8.86,0,0,1,2.355.323,6,6,0,0,1,2.032.954l-1.278,1.216-.538.122.385-.616a4.4,4.4,0,0,0-3.293-1.446,4.251,4.251,0,0,0-4.264,4.541,5.444,5.444,0,0,0,5.449,5.617,4.583,4.583,0,0,0,1.955-.385V365.41l-2.324.123,1.231-.663h3.263l-.4.385a.359.359,0,0,0-.154.245c-.016.139-.031.586-.031.739Z" transform="translate(-251.856 -357.217)" fill="#1b2b50"/>
    <path id="Path_105" data-name="Path 105" d="M412.688,366.478c-.508-.046-.615-.138-.615-.739v-8.712c0-.033.005-.067.008-.1.062-.538.216-.631.694-.908h-2.2l-1.155.554h1.177v9.5c0,.307-.061.354-.415.815H412.9l.569-.338C413.212,366.523,412.95,366.508,412.688,366.478Z" transform="translate(-374.36 -356.019)" fill="#1b2b50"/>
    <path id="Path_106" data-name="Path 106" d="M432.772,379.94c-.168.092-.336.2-.5.275a3.56,3.56,0,0,1-1.484.291,3.267,3.267,0,0,1-2.033-.6,3.956,3.956,0,0,1-1.557-3.226,3.465,3.465,0,0,1,3.5-3.531,2.972,2.972,0,0,1,1.575.428,2.53,2.53,0,0,1,1.068,1.513l-3.591,1.453-1.177.092c.382,1.941,1.7,3.07,3.149,3.07a3.949,3.949,0,0,0,1.865-.534Zm-1.436-4.556c.289-.107.443-.2.443-.412a1.517,1.517,0,0,0-1.513-1.315,1.883,1.883,0,0,0-1.758,2.125c0,.26.031.534.047.811Z" transform="translate(-388.181 -369.34)" fill="#1b2b50"/>
    <g id="Group_15" data-name="Group 15" transform="translate(45.612 3.813)">
      <path id="Path_107" data-name="Path 107" d="M457.306,373.261v1.009h-.122v-1.009h-.334v-.1h.79v.1Z" transform="translate(-456.85 -373.156)" fill="#1b2b50"/>
      <path id="Path_108" data-name="Path 108" d="M462.14,374.272v-1.018h-.006l-.312,1.018h-.1l-.313-1.018h0v1.018H461.3v-1.113h.191l.284.9h0l.279-.9h.193v1.113Z" transform="translate(-460.31 -373.158)" fill="#1b2b50"/>
    </g>
  </g>
  <g id="Group_17" data-name="Group 17" transform="translate(34.563 7.499)">
    <path id="Path_109" data-name="Path 109" d="M255.01,333.215h-.765a5.076,5.076,0,0,0-.218-.894h-1.1a4.621,4.621,0,0,0-.225.894h-.719q0-.093.558-1.53a12.028,12.028,0,0,0,.558-1.582h.9a13.2,13.2,0,0,0,.506,1.559,13.655,13.655,0,0,1,.505,1.553Zm-1.1-1.35a13.531,13.531,0,0,1-.409-1.334h-.038q0,.093-.423,1.334Z" transform="translate(-251.979 -330.031)" fill="#1b2b50"/>
    <path id="Path_110" data-name="Path 110" d="M270.485,333.213h-.59a5.831,5.831,0,0,0-.657-1.035,5.706,5.706,0,0,1-.784-1.351h-.038a8.415,8.415,0,0,1,.06.946q0,.59.033,1.439h-.588q.036-.741.036-1.628t-.036-1.484h.71a4.506,4.506,0,0,0,.59,1.011,5.95,5.95,0,0,1,.722,1.274h.036a9.08,9.08,0,0,1-.057-.957q0-.647-.034-1.329h.6q-.034.593-.034,1.484T270.485,333.213Z" transform="translate(-264.373 -330.028)" fill="#1b2b50"/>
    <path id="Path_111" data-name="Path 111" d="M285.829,331.5a1.763,1.763,0,0,1-.435,1.185,1.519,1.519,0,0,1-1.219.507q-.354,0-.975-.029.031-.722.031-1.628,0-.87-.031-1.484h.418q.1,0,.306-.007t.265-.007a1.611,1.611,0,0,1,1.251.43A1.487,1.487,0,0,1,285.829,331.5Zm-.653.1a1.152,1.152,0,0,0-.267-.773,1.015,1.015,0,0,0-.817-.314,2.531,2.531,0,0,0-.282.022q.024.478.024,1,0,.571.024,1.133a1.584,1.584,0,0,0,.311.031.9.9,0,0,0,.761-.319A1.232,1.232,0,0,0,285.177,331.6Z" transform="translate(-276.253 -329.98)" fill="#1b2b50"/>
    <path id="Path_112" data-name="Path 112" d="M300.572,333.164h-.708a4.7,4.7,0,0,0-.425-1.044.556.556,0,0,0-.478-.2l-.265,0q0,.615.022,1.24h-.664q.031-.722.031-1.628,0-.87-.031-1.484h.413q.072,0,.3-.007t.423-.007q1.1,0,1.1.75a.842.842,0,0,1-.626.83v.036a.747.747,0,0,1,.423.376A8.308,8.308,0,0,1,300.572,333.164Zm-.9-2.2q0-.475-.612-.476a2.083,2.083,0,0,0-.4.034q.026.37.027.966.131,0,.222,0Q299.676,331.494,299.676,330.965Z" transform="translate(-287.802 -329.98)" fill="#1b2b50"/>
    <path id="Path_113" data-name="Path 113" d="M314.132,331.349a1.717,1.717,0,0,1-.449,1.217,1.459,1.459,0,0,1-1.113.483,1.4,1.4,0,0,1-1.056-.444,1.561,1.561,0,0,1-.425-1.127,1.716,1.716,0,0,1,.449-1.217,1.458,1.458,0,0,1,1.111-.483,1.406,1.406,0,0,1,1.056.442A1.56,1.56,0,0,1,314.132,331.349Zm-.66.069a1.233,1.233,0,0,0-.256-.81.787.787,0,0,0-.631-.312.729.729,0,0,0-.593.313,1.249,1.249,0,0,0-.245.791,1.231,1.231,0,0,0,.257.809.787.787,0,0,0,.63.312.728.728,0,0,0,.593-.314A1.25,1.25,0,0,0,313.473,331.418Z" transform="translate(-297.936 -329.778)" fill="#1b2b50"/>
    <path id="Path_114" data-name="Path 114" d="M328.478,333.215H327.8q.031-.741.031-1.628T327.8,330.1h.676q-.031.6-.031,1.484Q328.447,332.488,328.478,333.215Z" transform="translate(-310.93 -330.031)" fill="#1b2b50"/>
    <path id="Path_115" data-name="Path 115" d="M337.228,331.5a1.763,1.763,0,0,1-.435,1.186,1.519,1.519,0,0,1-1.219.507q-.354,0-.975-.029.031-.722.031-1.628,0-.87-.031-1.484h.418q.1,0,.306-.007t.265-.007a1.611,1.611,0,0,1,1.251.43A1.488,1.488,0,0,1,337.228,331.5Zm-.652.1a1.153,1.153,0,0,0-.267-.773,1.015,1.015,0,0,0-.817-.314,2.531,2.531,0,0,0-.282.022q.024.478.024,1,0,.571.024,1.133a1.584,1.584,0,0,0,.312.031.9.9,0,0,0,.761-.319,1.232,1.232,0,0,0,.246-.779Z" transform="translate(-316.216 -329.98)" fill="#1b2b50"/>
    <path id="Path_116" data-name="Path 116" d="M356.481,333.215h-.765a5.042,5.042,0,0,0-.218-.894h-1.1a4.611,4.611,0,0,0-.225.894h-.719q0-.093.558-1.53a12,12,0,0,0,.558-1.582h.9a13.186,13.186,0,0,0,.506,1.559,13.718,13.718,0,0,1,.505,1.553Zm-1.1-1.35a13.574,13.574,0,0,1-.409-1.334h-.038q0,.093-.423,1.334Z" transform="translate(-330.872 -330.031)" fill="#1b2b50"/>
    <path id="Path_117" data-name="Path 117" d="M371.669,330.865a.932.932,0,0,1-.425.844,1.886,1.886,0,0,1-1.041.272q-.113,0-.16,0,0,.449.026,1.185h-.67q.031-.69.031-1.628,0-.86-.031-1.484h.416q.089,0,.339-.007t.435-.007a1.367,1.367,0,0,1,.767.206A.7.7,0,0,1,371.669,330.865Zm-.617.131q0-.512-.679-.512a1.908,1.908,0,0,0-.358.036q.027.451.026,1.023.06,0,.139,0,.873,0,.873-.553Z" transform="translate(-343.274 -329.978)" fill="#1b2b50"/>
    <path id="Path_118" data-name="Path 118" d="M384.551,330.865a.932.932,0,0,1-.424.844,1.888,1.888,0,0,1-1.041.272c-.075,0-.128,0-.16,0q0,.449.026,1.185h-.672q.031-.69.031-1.628,0-.86-.031-1.484h.416q.089,0,.34-.007t.435-.007a1.367,1.367,0,0,1,.767.206A.7.7,0,0,1,384.551,330.865Zm-.617.131q0-.512-.679-.512a1.908,1.908,0,0,0-.358.036q.027.451.026,1.023.06,0,.139,0Q383.934,331.548,383.934,331Z" transform="translate(-353.288 -329.978)" fill="#1b2b50"/>
    <path id="Path_119" data-name="Path 119" d="M402.914,331.349a1.716,1.716,0,0,1-.449,1.217,1.458,1.458,0,0,1-1.111.483,1.4,1.4,0,0,1-1.057-.444,1.562,1.562,0,0,1-.425-1.127,1.716,1.716,0,0,1,.449-1.217,1.459,1.459,0,0,1,1.112-.483,1.406,1.406,0,0,1,1.056.442A1.561,1.561,0,0,1,402.914,331.349Zm-.66.069a1.233,1.233,0,0,0-.256-.81.787.787,0,0,0-.631-.311.729.729,0,0,0-.593.313,1.249,1.249,0,0,0-.245.791,1.23,1.23,0,0,0,.257.809.787.787,0,0,0,.63.312.727.727,0,0,0,.593-.314A1.249,1.249,0,0,0,402.255,331.418Z" transform="translate(-366.964 -329.778)" fill="#1b2b50"/>
    <path id="Path_120" data-name="Path 120" d="M419.149,333.213h-.59a5.83,5.83,0,0,0-.657-1.035,5.706,5.706,0,0,1-.784-1.351h-.038a8.466,8.466,0,0,1,.06.946q0,.59.034,1.439h-.588q.036-.741.036-1.628t-.036-1.484h.71a4.5,4.5,0,0,0,.591,1.011,5.951,5.951,0,0,1,.722,1.274h.036a9.014,9.014,0,0,1-.057-.957q0-.647-.033-1.329h.6q-.033.593-.033,1.484T419.149,333.213Z" transform="translate(-379.959 -330.028)" fill="#1b2b50"/>
  </g>
</svg>
