<svg xmlns="http://www.w3.org/2000/svg" width="306.302" height="54.192" viewBox="0 0 306.302 54.192">
  <g id="IL_Logo" data-name="IL Logo" transform="translate(693.973 -219.039)">
    <path id="Intersection_1" data-name="Intersection 1" d="M12.551,30.846V2.6a3.369,3.369,0,0,1,.341-1.109A3.037,3.037,0,0,1,14.43.056c1.24-.365,2.762,1.19,2.762,1.19L27.546,11.8l-.087,7.733L17.97,9.806,18,30.853ZM131.2,30.778l-4.986-8.865-14.118.051,3.215-5.065h7.757l-5.205-8.624L104.323,30.789l-6.517.022L113.032,4.647a36.433,36.433,0,0,1,2.7-3.664,2.975,2.975,0,0,1,2.263-.9,3.732,3.732,0,0,1,3.121,1.739c.559.8,1.19,1.839,1.19,1.839l15.632,27.147ZM87.1,30.7V.031h5.534V30.705ZM0,30.7V.031H5.518V30.705Zm63.893-.108-.123-3.09L63.7,25.611h-.01v-.077l5.4-.136a11.017,11.017,0,0,0,3.883-1.378,11.253,11.253,0,0,0,3.9-4.35,11.961,11.961,0,0,0,.613-4.262,14.831,14.831,0,0,0-.453-3.364,9.571,9.571,0,0,0-1.3-2.631,7.574,7.574,0,0,0-2.47-2.357A12.744,12.744,0,0,0,69,5.673l-6.45-.209V.136h0v5.33h0v.008l-6.531-.017L56.159,25.6l7.537.025.076,1.891.108,3.177H50.928V.17L62.547.136h0L69.478.13a22.721,22.721,0,0,1,5.41,1.492A11.84,11.84,0,0,1,78.242,4.07L79.6,5.4A11.41,11.41,0,0,1,81.31,7.982a18.3,18.3,0,0,1,1.064,3.338,16.59,16.59,0,0,1,.273,2.511,22.548,22.548,0,0,1-.065,4.087,21.517,21.517,0,0,1-.943,3.747,18.277,18.277,0,0,1-2.561,4.01,18.621,18.621,0,0,1-4.5,3.456,13.308,13.308,0,0,1-4.011,1.328,28.816,28.816,0,0,1-3.9.236c-1.585,0-2.772-.092-2.772-.092Z" transform="translate(-693.973 230.737)" fill="#f80"/>
    <path id="Path_2" data-name="Path 2" d="M-236.259,318.917a12.424,12.424,0,0,1-.876,2.9,9.136,9.136,0,0,1-1.72,2.13,15.666,15.666,0,0,1-5.093,2.538,10.678,10.678,0,0,1-2.983.232l-22.312.118.014-5.283,22.529-.03a7.114,7.114,0,0,0,2.813-.453,4.824,4.824,0,0,0,2.929-2.865c.464-2.164-.169-3.533-2.321-4.544a7.943,7.943,0,0,0-2.785-.541l-13.771-.03a16.619,16.619,0,0,1-4.388-.514,12.892,12.892,0,0,1-4.028-2.793,6.958,6.958,0,0,1-1.322-2.716s-.172-2.338-.126-3.182a7.821,7.821,0,0,1,.649-2.6,7.983,7.983,0,0,1,2.556-3.3,14.038,14.038,0,0,1,5.281-1.692l23.279.029v5.372l-21.435.059s-1.147.03-2.443.036c-2.3.009-2.025,4.977-.447,5.578a14.686,14.686,0,0,0,4.388.585l13.619-.045a18.435,18.435,0,0,1,3.106.906,8.427,8.427,0,0,1,2.029,1.175,9.568,9.568,0,0,1,2.036,2.6,10.866,10.866,0,0,1,.96,3.6,12.026,12.026,0,0,1-.13,2.737Zm-37.122-1.205a18.283,18.283,0,0,1-2.56,4.01,18.627,18.627,0,0,1-4.5,3.456,13.319,13.319,0,0,1-4.011,1.328,36.034,36.034,0,0,1-6.67.143l-.127-3.181-.062-1.8h-.009v-.081l5.4-.136a11,11,0,0,0,3.882-1.382,11.244,11.244,0,0,0,3.9-4.349,11.958,11.958,0,0,0,.613-4.262,14.824,14.824,0,0,0-.453-3.364,9.564,9.564,0,0,0-1.3-2.638,7.567,7.567,0,0,0-2.47-2.355,12.736,12.736,0,0,0-4.27-1.384l-6.446-.2V296.18l6.925-.005a22.714,22.714,0,0,1,5.41,1.492,11.836,11.836,0,0,1,3.354,2.449l1.362,1.329a11.417,11.417,0,0,1,1.708,2.584,18.264,18.264,0,0,1,1.064,3.338,16.615,16.615,0,0,1,.273,2.512,22.514,22.514,0,0,1-.068,4.087,21.521,21.521,0,0,1-.943,3.747Zm-19.092-16.2h0v.008L-299,301.5l.141,20.139,7.538.025.068,1.8.108,3.27H-304.1V296.226l11.618-.036h0v5.331ZM-313.1,327.24c-1.43.114-3.053-1.677-3.053-1.677l-19.468-19.57-.022,20.853h-5.164v-28.2s.3-2.193,1.771-2.443c1.648-.383,3.006,1.3,3.006,1.3l19.426,19.857-.007-21.009h5.129l.087,28.69s-.038,2.076-1.7,2.208Zm-60.184-5.956h26.217v5.548h-26.217Zm2.42-7.175v-5.6H-348.4v5.6Zm-2.42-17.973h26.217v5.548h-26.217Zm-30.02.3h5.063l.1,25.147h20.341l.011,5.312-25.572-.023.057-30.436Zm-98.359,30.685a5.353,5.353,0,0,1-3.074-1.276L-515,315.572l.124-7.79,9.487,9.693.036-21.289,5.186.015-.036,28.387s.051,2.536-1.464,2.536Z" transform="translate(-151.575 -65.31)" fill="#1caffd" fill-rule="evenodd"/>
    <path id="Path_3" data-name="Path 3" d="M-455.272,523.958a4.382,4.382,0,0,1-4.328-4.436,4.383,4.383,0,0,1,4.328-4.436,4.383,4.383,0,0,1,4.328,4.436A4.382,4.382,0,0,1-455.272,523.958Zm0,0a4.382,4.382,0,0,1-4.328-4.436,4.383,4.383,0,0,1,4.328-4.436,4.383,4.383,0,0,1,4.328,4.436A4.382,4.382,0,0,1-455.272,523.958Zm0,0a4.382,4.382,0,0,1-4.328-4.436,4.383,4.383,0,0,1,4.328-4.436,4.383,4.383,0,0,1,4.328,4.436A4.382,4.382,0,0,1-455.272,523.958Z" transform="translate(-198.494 -250.727)" fill="#1caffd"/>
    <path id="Path_4" data-name="Path 4" d="M-618.539,228.048a4.382,4.382,0,0,1-4.328-4.436,4.382,4.382,0,0,1,4.328-4.436,4.383,4.383,0,0,1,4.328,4.436A4.383,4.383,0,0,1-618.539,228.048Zm0,0a4.382,4.382,0,0,1-4.328-4.436,4.382,4.382,0,0,1,4.328-4.436,4.383,4.383,0,0,1,4.328,4.436A4.383,4.383,0,0,1-618.539,228.048Zm0,0a4.382,4.382,0,0,1-4.328-4.436,4.382,4.382,0,0,1,4.328-4.436,4.383,4.383,0,0,1,4.328,4.436A4.383,4.383,0,0,1-618.539,228.048Z" transform="translate(-60.23 -0.137)" fill="#f80"/>
  </g>
</svg>
