<svg xmlns="http://www.w3.org/2000/svg" width="165.916" height="29.353" viewBox="0 0 165.916 29.353">
  <g id="IL_Logo" data-name="IL Logo" transform="translate(693.973 -219.042)">
    <path id="Intersection_1" data-name="Intersection 1" d="M6.8,16.709V1.408a1.825,1.825,0,0,1,.184-.6A1.645,1.645,0,0,1,7.817.031c.672-.2,1.5.642,1.5.642l5.608,5.719-.047,4.189L9.735,5.309l.015,11.4Zm64.268-.037-2.7-4.8-7.647.025,1.742-2.744h4.2L63.844,4.48l-7.334,12.2-3.53.012L61.227,2.517A19.736,19.736,0,0,1,62.688.533,1.612,1.612,0,0,1,63.915.047a2.022,2.022,0,0,1,1.691.942c.3.433.643,1,.643,1l8.468,14.705Zm-23.886-.041V.017h3V16.633ZM0,16.633V.017H2.986V16.633Zm34.61-.056L34.543,14.9l-.037-1.024H34.5v-.044l2.926-.074a5.968,5.968,0,0,0,2.1-.749,6.1,6.1,0,0,0,2.115-2.356,6.479,6.479,0,0,0,.332-2.309,8.033,8.033,0,0,0-.246-1.822A5.184,5.184,0,0,0,41.025,5.1a4.1,4.1,0,0,0-1.338-1.276,6.9,6.9,0,0,0-2.313-.75L33.882,2.96V.074h0V2.961h0v0l-3.537-.01.076,10.909,4.083.014.041,1.024.059,1.721H27.587V.092L33.881.074h0l3.755,0a12.308,12.308,0,0,1,2.931.808A6.413,6.413,0,0,1,42.381,2.2l.738.719a6.181,6.181,0,0,1,.925,1.4,9.913,9.913,0,0,1,.576,1.808,8.986,8.986,0,0,1,.148,1.36,12.213,12.213,0,0,1-.035,2.214,11.655,11.655,0,0,1-.511,2.029,9.9,9.9,0,0,1-1.387,2.172A10.087,10.087,0,0,1,40.4,15.78a7.206,7.206,0,0,1-2.173.719,15.61,15.61,0,0,1-2.113.128C35.253,16.627,34.61,16.576,34.61,16.576Z" transform="translate(-693.973 225.377)" fill="#fff"/>
    <path id="Path_2" data-name="Path 2" d="M-364.01,308.476a6.732,6.732,0,0,1-.474,1.571,4.95,4.95,0,0,1-.932,1.154,8.486,8.486,0,0,1-2.759,1.375,5.783,5.783,0,0,1-1.616.125l-12.086.064.008-2.862,12.2-.016a3.854,3.854,0,0,0,1.521-.245,2.613,2.613,0,0,0,1.587-1.552,1.939,1.939,0,0,0-1.257-2.463,4.3,4.3,0,0,0-1.509-.3l-7.46-.016a9,9,0,0,1-2.377-.279,6.984,6.984,0,0,1-2.182-1.513,3.768,3.768,0,0,1-.716-1.471s-.093-1.267-.068-1.723a4.236,4.236,0,0,1,.349-1.41,4.325,4.325,0,0,1,1.384-1.785,7.6,7.6,0,0,1,2.861-.916l12.61.016v2.91l-11.611.032s-.621.016-1.324.019c-1.248,0-1.1,2.693-.242,3.021a7.952,7.952,0,0,0,2.377.317l7.377-.024a9.985,9.985,0,0,1,1.683.491,4.566,4.566,0,0,1,1.1.637,5.182,5.182,0,0,1,1.1,1.405,5.885,5.885,0,0,1,.52,1.951,6.51,6.51,0,0,1-.07,1.483Zm-20.109-.653a9.9,9.9,0,0,1-1.387,2.172,10.089,10.089,0,0,1-2.438,1.872,7.214,7.214,0,0,1-2.173.719,19.518,19.518,0,0,1-3.613.077l-.069-1.723-.034-.975h0v-.044l2.926-.074a5.958,5.958,0,0,0,2.1-.749,6.091,6.091,0,0,0,2.115-2.356,6.478,6.478,0,0,0,.332-2.309,8.031,8.031,0,0,0-.246-1.822,5.181,5.181,0,0,0-.707-1.429,4.1,4.1,0,0,0-1.338-1.276,6.9,6.9,0,0,0-2.313-.75l-3.492-.111V296.16l3.753,0a12.3,12.3,0,0,1,2.931.808,6.411,6.411,0,0,1,1.815,1.326l.738.719a6.183,6.183,0,0,1,.925,1.4,9.89,9.89,0,0,1,.576,1.808,9,9,0,0,1,.148,1.361,12.2,12.2,0,0,1-.037,2.214,11.659,11.659,0,0,1-.511,2.029Zm-10.342-8.774h0v0l-3.536-.01.076,10.909,4.083.014.037.975.061,1.771h-7.016v-16.53l6.294-.02h0v2.888Zm-11.175,13.936c-.775.062-1.654-.908-1.654-.908l-10.546-10.6-.012,11.3h-2.8V297.5s.163-1.188.959-1.324a1.862,1.862,0,0,1,1.628.7l10.522,10.756,0-11.38h2.778l.047,15.541s-.02,1.125-.922,1.2Zm-32.6-3.227h14.2v3.005h-14.2v-3.006Zm1.311-3.886v-3.034h12.168v3.036Zm-1.311-9.736h14.2v3.006h-14.2Zm-16.261.162,2.743,0,.053,13.622h11.02l.006,2.878-13.852-.012.031-16.486Zm-53.28,16.621a2.9,2.9,0,0,1-1.665-.691L-515,306.662l.067-4.22,5.139,5.251.02-11.532,2.809.008-.02,15.377s.027,1.374-.793,1.374Z" transform="translate(-164.132 -70.711)" fill="#fff" fill-rule="evenodd"/>
    <path id="Path_3" data-name="Path 3" d="M-457.253,519.893a2.374,2.374,0,0,1-2.344-2.4,2.374,2.374,0,0,1,2.344-2.4,2.374,2.374,0,0,1,2.345,2.4A2.374,2.374,0,0,1-457.253,519.893Zm0,0a2.374,2.374,0,0,1-2.344-2.4,2.374,2.374,0,0,1,2.344-2.4,2.374,2.374,0,0,1,2.345,2.4A2.374,2.374,0,0,1-457.253,519.893Zm0,0a2.374,2.374,0,0,1-2.344-2.4,2.374,2.374,0,0,1,2.344-2.4,2.374,2.374,0,0,1,2.345,2.4A2.374,2.374,0,0,1-457.253,519.893Z" transform="translate(-214.939 -271.498)" fill="#1caffd"/>
    <path id="Path_4" data-name="Path 4" d="M-620.523,223.983a2.374,2.374,0,0,1-2.344-2.4,2.374,2.374,0,0,1,2.344-2.4,2.374,2.374,0,0,1,2.344,2.4A2.374,2.374,0,0,1-620.523,223.983Zm0,0a2.374,2.374,0,0,1-2.344-2.4,2.374,2.374,0,0,1,2.344-2.4,2.374,2.374,0,0,1,2.344,2.4A2.374,2.374,0,0,1-620.523,223.983Zm0,0a2.374,2.374,0,0,1-2.344-2.4,2.374,2.374,0,0,1,2.344-2.4,2.374,2.374,0,0,1,2.344,2.4A2.374,2.374,0,0,1-620.523,223.983Z" transform="translate(-65.214 -0.137)" fill="#f80"/>
  </g>
</svg>
