<svg id="Component_7_25" data-name="Component 7 – 25" xmlns="http://www.w3.org/2000/svg" width="27" height="27" viewBox="0 0 27 27">
  <circle id="Ellipse_172" data-name="Ellipse 172" cx="13.5" cy="13.5" r="13.5" fill="#2867b2"/>
  <path id="linkedin" d="M7.491,18.7a.538.538,0,0,1-.538.538H4.665a.538.538,0,0,1-.538-.538V9.111a.538.538,0,0,1,.538-.538H6.954a.538.538,0,0,1,.538.538ZM5.81,7.669A2.174,2.174,0,1,1,7.983,5.5,2.174,2.174,0,0,1,5.81,7.669ZM19.45,18.747a.494.494,0,0,1-.494.494H16.5a.494.494,0,0,1-.494-.494v-4.5c0-.671.2-2.941-1.754-2.941-1.513,0-1.82,1.554-1.882,2.251v5.19a.494.494,0,0,1-.494.494H9.5a.494.494,0,0,1-.494-.494V9.068A.494.494,0,0,1,9.5,8.574h2.375a.494.494,0,0,1,.494.494V9.9a3.371,3.371,0,0,1,3.171-1.492c3.932,0,3.909,3.673,3.909,5.692v4.643Z" transform="translate(2.163 1.903)" fill="#fff"/>
</svg>
