<svg id="Component_7_25" data-name="Component 7 – 25" xmlns="http://www.w3.org/2000/svg" width="27" height="27" viewBox="0 0 27 27">
  <circle id="Ellipse_172" data-name="Ellipse 172" cx="13.5" cy="13.5" r="13.5" fill="#fff"/>
  <path id="linkedin" d="M6.527,14.858a.4.4,0,0,1-.4.4H4.408a.4.4,0,0,1-.4-.4V7.664a.4.4,0,0,1,.4-.4H6.124a.4.4,0,0,1,.4.4ZM5.266,6.582A1.63,1.63,0,1,1,6.9,4.952,1.63,1.63,0,0,1,5.266,6.582ZM15.5,14.891a.371.371,0,0,1-.371.371H13.284a.371.371,0,0,1-.371-.371V11.516c0-.5.148-2.206-1.316-2.206-1.135,0-1.365,1.165-1.411,1.688v3.892a.371.371,0,0,1-.371.371H8.034a.371.371,0,0,1-.371-.371V7.631a.371.371,0,0,1,.371-.371H9.816a.371.371,0,0,1,.371.371v.628A2.528,2.528,0,0,1,12.564,7.14c2.949,0,2.932,2.755,2.932,4.269v3.482Z" transform="translate(4.213 3.779)" fill="#2c406e"/>
</svg>
