<svg id="medal" xmlns="http://www.w3.org/2000/svg" width="27.729" height="55.895" viewBox="0 0 27.729 55.895">
  <path id="Path_2785" data-name="Path 2785" d="M123.618,197.85l2.716,1.537a1.449,1.449,0,0,0,2-.564c0-.051.051-.051.051-.1l1.383-2.46h3.074a1.432,1.432,0,0,0,1.435-1.435h0l-.051-2.921,2.665-1.537a1.433,1.433,0,0,0,.512-2l-.051-.051-1.486-2.46,1.537-2.716a1.449,1.449,0,0,0-.564-2c-.051,0-.051-.051-.1-.051l-2.46-1.383v-3.074a1.432,1.432,0,0,0-1.435-1.435h0l-2.921.051-1.537-2.664a1.433,1.433,0,0,0-2-.512l-.051.051-1.537.922-.1-7.225a1.025,1.025,0,1,0-2.05,0l.1,7.071-1.537-.871a1.449,1.449,0,0,0-2,.564c0,.051-.051.051-.051.1l-1.383,2.46H114.7a1.432,1.432,0,0,0-1.435,1.435h0l.051,2.921-2.665,1.537a1.433,1.433,0,0,0-.512,2l.051.051,1.486,2.46-1.537,2.716a1.449,1.449,0,0,0,.564,2c.051,0,.051.051.1.051l2.46,1.383v3.074a1.432,1.432,0,0,0,1.435,1.435h0l2.921-.051,1.537,2.665a1.433,1.433,0,0,0,2,.512l.051-.051Z" transform="translate(-109.933 -143.689)" fill="#ffba00"/>
  <g id="Group_4035" data-name="Group 4035" transform="translate(4.872 21.06)">
    <path id="Path_2786" data-name="Path 2786" d="M239.379,220.658l1.537,2.664h1.332l-1.537-2.664a1.481,1.481,0,0,0-1.947-.564A1.3,1.3,0,0,1,239.379,220.658Z" transform="translate(-227.132 -212.818)" fill="#f80"/>
    <path id="Path_2787" data-name="Path 2787" d="M212.323,165.425l.1,8.045,1.332-.82-.1-7.225a1.028,1.028,0,0,0-1.025-1.025.974.974,0,0,0-.666.256A.922.922,0,0,1,212.323,165.425Z" transform="translate(-203.765 -164.4)" fill="#f80"/>
    <path id="Path_2788" data-name="Path 2788" d="M249.678,258.718l-1.486-2.46,1.537-2.716a1.449,1.449,0,0,0-.564-2c-.051,0-.051-.051-.1-.051l-2.46-1.384v-3.074a1.432,1.432,0,0,0-1.435-1.435H243.99a1.443,1.443,0,0,1,1.281,1.435v3.074l2.46,1.384c.051,0,.051.051.1.051a1.494,1.494,0,0,1,.564,2l-1.537,2.716,1.486,2.46.051.051a1.478,1.478,0,0,1-.512,2L245.22,262.3l.051,2.921h0a1.432,1.432,0,0,1-1.435,1.435h-3.074l-1.384,2.46c0,.051-.051.051-.051.1a1.967,1.967,0,0,1-.564.564,1.5,1.5,0,0,0,1.947-.564c0-.051.051-.051.051-.1l1.383-2.46h3.074a1.432,1.432,0,0,0,1.435-1.435h0L246.6,262.3l2.665-1.537a1.433,1.433,0,0,0,.512-2C249.729,258.769,249.729,258.769,249.678,258.718Z" transform="translate(-227.132 -235.198)" fill="#f80"/>
    <path id="Path_2789" data-name="Path 2789" d="M164.31,269.146a9.526,9.526,0,1,1,2.818-6.764,9.483,9.483,0,0,1-2.818,6.764m-6.713.769a7.31,7.31,0,0,0,5.278-2.2,7.521,7.521,0,0,0,2.2-5.278,7.31,7.31,0,0,0-2.2-5.278,7.521,7.521,0,0,0-5.278-2.2,7.31,7.31,0,0,0-5.278,2.2,7.521,7.521,0,0,0-2.2,5.278,7.31,7.31,0,0,0,2.2,5.278A7.429,7.429,0,0,0,157.6,269.914Z" transform="translate(-147.964 -241.476)" fill="#f80"/>
    <path id="Path_2790" data-name="Path 2790" d="M191.2,291.133l.82,2.511h2.613a.678.678,0,0,1,.666.666.708.708,0,0,1-.307.564h0l-2.1,1.537.82,2.511a.713.713,0,0,1-.461.871.777.777,0,0,1-.666-.154l-2.05-1.537-2.1,1.537a.726.726,0,0,1-.974-.154.678.678,0,0,1-.1-.615h0l.82-2.511-2.1-1.537a.718.718,0,0,1-.154-.974.588.588,0,0,1,.615-.256H189.1l.82-2.511a.713.713,0,0,1,.871-.461.969.969,0,0,1,.41.512" transform="translate(-180.957 -274.428)" fill="#f80"/>
  </g>
  <g id="Group_4036" data-name="Group 4036" transform="translate(4.257 32.384)">
    <path id="Path_2791" data-name="Path 2791" d="M159.51,269.146a9.526,9.526,0,1,1,2.818-6.764,9.826,9.826,0,0,1-2.818,6.764m-6.764.769a7.31,7.31,0,0,0,5.278-2.2,7.521,7.521,0,0,0,2.2-5.278,7.31,7.31,0,0,0-2.2-5.278,7.521,7.521,0,0,0-5.278-2.2,7.31,7.31,0,0,0-5.278,2.2,7.521,7.521,0,0,0-2.2,5.278,7.31,7.31,0,0,0,2.2,5.278A7.521,7.521,0,0,0,152.746,269.914Z" transform="translate(-143.164 -252.8)" fill="#fcf8cf"/>
    <path id="Path_2792" data-name="Path 2792" d="M186.4,291.133l.82,2.511h2.613a.678.678,0,0,1,.666.666.708.708,0,0,1-.307.564h0l-2.1,1.537.82,2.511a.713.713,0,0,1-.461.871.777.777,0,0,1-.666-.154l-2.05-1.537-2.1,1.537a.726.726,0,0,1-.974-.154.678.678,0,0,1-.1-.615h0l.82-2.511-2.1-1.537a.718.718,0,0,1-.154-.974.588.588,0,0,1,.615-.256H184.3l.82-2.511a.713.713,0,0,1,.871-.461,2.006,2.006,0,0,1,.41.512" transform="translate(-176.157 -285.753)" fill="#fcf8cf"/>
  </g>
  <path id="Path_2793" data-name="Path 2793" d="M138.632,28.131l-10.5-5.944a.968.968,0,0,1-.564-.922V1.025A1.028,1.028,0,0,1,128.589,0H149.7a1.028,1.028,0,0,1,1.025,1.025v20.24a1.057,1.057,0,0,1-.564.922l-10.5,5.944c-.051,0-.051.051-.1.051h0a1.206,1.206,0,0,1-.41.1h0a1.206,1.206,0,0,1-.41-.1h0a.159.159,0,0,0-.1-.051" transform="translate(-125.305)" fill="#3b6bdd"/>
</svg>
