<svg xmlns="http://www.w3.org/2000/svg" width="82.008" height="80.35" viewBox="0 0 82.008 80.35">
  <g id="Group_4299" data-name="Group 4299" transform="translate(-141 -3328)">
    <path id="Path_2980" data-name="Path 2980" d="M24.75,2.867S-7.212,8.907,1.507,35.447,65.634,41.976,68.9,16.359,24.75,2.867,24.75,2.867Z" transform="translate(141 3353.871) rotate(-22)" fill="#edf2ff"/>
    <g id="Group_4288" data-name="Group 4288" transform="translate(-18918.232 424.05)">
      <path id="Path_2987" data-name="Path 2987" d="M19105.367,2920.658l-.066-7.973,6.469.449,1.795,1.011-.672,7.412-4.156-.9h-3.369Z" transform="translate(1.23 0.042)" fill="#3b6bdd"/>
      <path id="Path_2986" data-name="Path 2986" d="M19105.605,2981.449l16.959-17.662-1.4-1.62h-7.236l-.705-1.062-.158-7.353s-5.77,1.988-7.766,2.563C19105.3,2958.584,19105.605,2981.449,19105.605,2981.449Z" transform="translate(1.23 2.382)" fill="#3b6bdd"/>
      <path id="Path_2959" data-name="Path 2959" d="M171.979,91.634a1.06,1.06,0,0,0,1.865-1.007,15.806,15.806,0,1,0,1.9,7.1,1.06,1.06,0,1,0-2.119.058,13.688,13.688,0,1,1-1.644-6.148Z" transform="translate(18946.67 2841.252)" fill="#50597b"/>
      <path id="Path_2960" data-name="Path 2960" d="M273.617,216.485a3.235,3.235,0,0,0,4.5,0,3.183,3.183,0,0,0,0-4.5,3.179,3.179,0,0,0-4.5,4.5Zm1.5-3a1.1,1.1,0,0,1,1.5,0,1.061,1.061,0,0,1,0,1.5,1.06,1.06,0,1,1-1.5-1.5Z" transform="translate(18836.262 2730.698)" fill="#ffb72e"/>
      <path id="Path_2961" data-name="Path 2961" d="M199.821,138.192a3.179,3.179,0,1,0-4.5,0A3.235,3.235,0,0,0,199.821,138.192Zm-3-1.5a1.06,1.06,0,0,1,1.5-1.5,1.074,1.074,0,0,1-.75,1.809,1.235,1.235,0,0,1-.749-.31Z" transform="translate(18903.492 2797.928)" fill="#ffb72e"/>
      <path id="Path_2962" data-name="Path 2962" d="M201.924,154.6a1.057,1.057,0,0,0,.749-.31L216.1,140.867a1.06,1.06,0,0,0-1.5-1.5l-13.424,13.424A1.085,1.085,0,0,0,201.924,154.6Z" transform="translate(18897.918 2792.542)" fill="#ffb72e"/>
      <path id="Path_2963" data-name="Path 2963" d="M150.64,8.86a1.06,1.06,0,0,0-2.12,0v4.087a19.774,19.774,0,0,0-5.049-3.468V2.486A2.488,2.488,0,0,0,140.985,0H129.166a2.488,2.488,0,0,0-2.486,2.486V9.268a19.844,19.844,0,0,0-5.5,3.676V8.86a1.06,1.06,0,1,0-2.12,0v6.422a19.944,19.944,0,0,0-3.889,15.371,1.06,1.06,0,1,0,2.092-.339,17.707,17.707,0,1,1,1.9,5.585,1.06,1.06,0,1,0-1.865,1.008,19.963,19.963,0,0,0,9.384,8.712v5.627a.366.366,0,0,1-.366.366h-6.421a2.486,2.486,0,0,0-1.791,4.21l15.183,15.767a2.486,2.486,0,0,0,3.581,0l6.308-6.551a1.06,1.06,0,0,0-1.527-1.47l-6.308,6.551a.366.366,0,0,1-.527,0L119.63,54.352a.366.366,0,0,1,.264-.62h6.421a2.488,2.488,0,0,0,2.486-2.485V46.422a20.038,20.038,0,0,0,12.551-.163v4.987a2.488,2.488,0,0,0,2.486,2.485h6.422a.366.366,0,0,1,.264.62l-5.467,5.677a1.06,1.06,0,1,0,1.527,1.47l5.467-5.677a2.486,2.486,0,0,0-1.79-4.21h-6.421a.366.366,0,0,1-.366-.366V45.39a19.927,19.927,0,0,0,7.169-30.1ZM128.8,8.46V2.486a.366.366,0,0,1,.366-.366h11.819a.366.366,0,0,1,.366.366V8.611A20.064,20.064,0,0,0,128.8,8.46Z" transform="translate(18971.76 2911.95)" fill="#50597b"/>
      <path id="Path_2964" data-name="Path 2964" d="M403.8,0a1.06,1.06,0,0,0-1.06,1.06V17.682a1.06,1.06,0,1,0,2.12,0V1.06A1.06,1.06,0,0,0,403.8,0Z" transform="translate(18724.604 2911.95)" fill="#50597b"/>
      <path id="Path_2965" data-name="Path 2965" d="M95.319,0a1.06,1.06,0,0,0-1.06,1.06V17.682a1.06,1.06,0,1,0,2.12,0V1.06A1.06,1.06,0,0,0,95.319,0Z" transform="translate(18989.494 2911.95)" fill="#50597b"/>
    </g>
  </g>
</svg>
