<svg xmlns="http://www.w3.org/2000/svg" width="82.008" height="75.363" viewBox="0 0 82.008 75.363">
  <g id="Group_4301" data-name="Group 4301" transform="translate(-916 -3328)">
    <path id="Path_2978" data-name="Path 2978" d="M24.75,2.867S-7.212,8.907,1.507,35.447,65.634,41.976,68.9,16.359,24.75,2.867,24.75,2.867Z" transform="translate(916 3353.871) rotate(-22)" fill="#edf2ff"/>
    <path id="Path_3011" data-name="Path 3011" d="M74.541,2.117H70.3a.969.969,0,1,0,0,1.938h4.237a.448.448,0,0,1,.448.448V30.516a.448.448,0,0,1-.448.447H34.9V29.025H61.063a.969.969,0,1,0,0-1.938H34.9v-4.11a4.711,4.711,0,0,0-9.422,0v4.11H23.232a3.821,3.821,0,0,0-2.712-2.712V17.491a.969.969,0,0,0-1.938,0v7.728a.969.969,0,0,0,.969.969,1.871,1.871,0,0,1,1.868,1.868.969.969,0,0,0,.969.969h3.086v1.938H17.091a.448.448,0,0,1-.448-.447V4.5a.448.448,0,0,1,.448-.447H30.478V5.993h-8.09a.969.969,0,0,0-.969.969A1.871,1.871,0,0,1,19.551,8.83a.969.969,0,0,0-.969.969v3.563a.969.969,0,0,0,1.938,0V10.643a3.821,3.821,0,0,0,2.712-2.712h7.246V8.3a4.213,4.213,0,0,0,7.025,3.14,4.213,4.213,0,0,0,7.369,0,4.211,4.211,0,0,0,6.584-1.265,4.211,4.211,0,0,0,6.821-2.248H68.4a3.821,3.821,0,0,0,2.712,2.712V24.375A3.821,3.821,0,0,0,68.4,27.088H65.192a.969.969,0,1,0,0,1.938h4.053a.969.969,0,0,0,.969-.969,1.871,1.871,0,0,1,1.868-1.868.969.969,0,0,0,.969-.969V9.8a.969.969,0,0,0-.969-.969,1.871,1.871,0,0,1-1.868-1.868.969.969,0,0,0-.969-.969H58.39V4.055h7.785a.969.969,0,1,0,0-1.938H58.21A3.175,3.175,0,0,0,55.221,0H53.128a3.158,3.158,0,0,0-2.2.892A3.158,3.158,0,0,0,48.727,0H46.635a3.158,3.158,0,0,0-2.2.892A3.158,3.158,0,0,0,42.233,0H40.141a3.158,3.158,0,0,0-2.2.892A3.158,3.158,0,0,0,35.74,0H33.647a3.174,3.174,0,0,0-2.989,2.117H17.091A2.388,2.388,0,0,0,14.706,4.5V30.516A2.388,2.388,0,0,0,17.091,32.9h8.382v7.186a7.687,7.687,0,0,0,2.266,5.472l4.149,4.149V65.05a.969.969,0,0,0,1.938,0V49.306a.97.97,0,0,0-.284-.685L29.11,44.189a5.762,5.762,0,0,1-1.7-4.1V22.977a2.773,2.773,0,0,1,5.547,0v8.955a.969.969,0,0,0,.969.969,7.908,7.908,0,0,1,7.9,7.9v.621a.969.969,0,0,0,1.938,0V40.8a9.827,9.827,0,0,0-3.984-7.9H60.094v.5a8.137,8.137,0,0,1-1.532,4.767l-2.789,3.891a.969.969,0,0,0-.181.564V65.05a.969.969,0,0,0,1.938,0V42.935L60.137,39.3a10.062,10.062,0,0,0,1.895-5.9v-.5H74.542a2.388,2.388,0,0,0,2.385-2.385V4.5a2.388,2.388,0,0,0-2.386-2.385Zm-21.413-.18h2.092a1.233,1.233,0,0,1,1.232,1.232V6.961a2.278,2.278,0,0,1-4.556,0V3.169a1.233,1.233,0,0,1,1.232-1.232Zm-6.494,0h2.092a1.233,1.233,0,0,1,1.232,1.232V8.3a2.278,2.278,0,0,1-4.556,0V3.169a1.233,1.233,0,0,1,1.232-1.232Zm-6.494,0h2.092a1.233,1.233,0,0,1,1.232,1.232V9.4a2.28,2.28,0,0,1-2.278,2.278h0A2.28,2.28,0,0,1,38.909,9.4V3.169a1.233,1.233,0,0,1,1.232-1.232ZM32.415,3.169a1.233,1.233,0,0,1,1.232-1.232H35.74a1.233,1.233,0,0,1,1.232,1.232V8.3a2.278,2.278,0,0,1-4.556,0V3.169Z" transform="translate(916.555 3337.344)" fill="#50597b"/>
  </g>
</svg>
