<svg xmlns="http://www.w3.org/2000/svg" width="73.51" height="73.509" viewBox="0 0 73.51 73.509">
  <g id="Group_4300" data-name="Group 4300" transform="translate(-556 -3338)">
    <g id="Group_4289" data-name="Group 4289" transform="translate(-18658 431)">
      <path id="Path_2991" data-name="Path 2991" d="M19252.879,2913.957l2.164-3.931,3.188-1.275,3.93,1.275,1.488,2.762v3.294l-.426,2.019-2.443,1.594h-7.9Z" fill="#3b6bdd"/>
      <path id="Path_2992" data-name="Path 2992" d="M19263.557,2913.911l-2.146-3.9-3.158-1.264-3.9,1.264-1.475,2.738v3.265l.422,2,2.422,1.58h7.832Z" transform="translate(-23.23 -0.952)" fill="#3b6bdd"/>
      <path id="Path_2993" data-name="Path 2993" d="M19241.338,2919.269h11.154v-3.612l-2.549-2.869-3.4-1.062-2.762,1.063-2.443,2.869Z" fill="#ffb72e"/>
      <path id="Path_2988" data-name="Path 2988" d="M19215.879,2920.779h24.779v12.209h-24.779Z" fill="#ffb72e"/>
      <path id="Path_2989" data-name="Path 2989" d="M19215.879,2920.779h24.779v12.209h-24.779Z" transform="translate(37)" fill="#ffb72e"/>
      <g id="XMLID_345_" transform="translate(19214 2907)">
        <path id="XMLID_346_" d="M181.434,306.355a1.436,1.436,0,1,0-1.015-.421A1.44,1.44,0,0,0,181.434,306.355Z" transform="translate(-154.155 -259.913)" fill="#50597b"/>
        <path id="XMLID_295_" d="M61.424,34.035V28.158h1.891a2.731,2.731,0,0,0,2.728-2.728V14.218a2.731,2.731,0,0,0-2.728-2.728H54.364a9.991,9.991,0,0,0,3.01-7.151,1.436,1.436,0,0,0-2.871,0,7.155,7.155,0,0,1-3.676,6.247,7.178,7.178,0,1,0-13.2-5.456,7.161,7.161,0,0,0-9.216,0,7.178,7.178,0,1,0-13.2,5.456,7.155,7.155,0,0,1-3.676-6.247,1.436,1.436,0,0,0-2.871,0,9.991,9.991,0,0,0,3.01,7.151H2.728A2.731,2.731,0,0,0,0,14.217V25.43a2.731,2.731,0,0,0,2.728,2.728H4.619v35.3A4.312,4.312,0,0,0,8.926,67.77H38.55A20.669,20.669,0,1,0,61.424,34.035ZM40.2,10.628V7.183a4.307,4.307,0,1,1,4.307,4.307H40.2Zm0,3.733H63.171V25.287H40.2Zm0,13.8H58.553v4.811A20.654,20.654,0,0,0,40.2,36.486ZM28.714,10.628a4.307,4.307,0,0,1,8.614,0v.861H28.714Zm0,3.733h8.614V25.287H28.714ZM21.536,2.875a4.312,4.312,0,0,1,4.307,4.307V11.49H21.536a4.307,4.307,0,0,1,0-8.614ZM2.871,25.287V14.361H25.843V25.287H2.871ZM28.714,64.9V51.472a1.436,1.436,0,1,0-2.871,0V64.9H8.926A1.437,1.437,0,0,1,7.49,63.463v-35.3H25.843V38.551a1.436,1.436,0,1,0,2.871,0V28.158h8.614V39.181A20.631,20.631,0,0,0,36.053,64.9Zm24.121,5.743a17.8,17.8,0,1,1,17.8-17.8A17.823,17.823,0,0,1,52.835,70.641Z" transform="translate(0 -0.004)" fill="#50597b"/>
        <path id="XMLID_1134_" d="M341.182,301.329a1.436,1.436,0,0,0-1.919.664l-7.9,16.267a1.436,1.436,0,1,0,2.583,1.254l7.9-16.268A1.436,1.436,0,0,0,341.182,301.329Z" transform="translate(-283.665 -257.944)" fill="#ffb72e"/>
        <path id="XMLID_1209_" d="M295.953,288.548a4.593,4.593,0,1,0,0,6.5A4.565,4.565,0,0,0,295.953,288.548Zm-2.03,4.468a1.724,1.724,0,1,1,0-2.438A1.725,1.725,0,0,1,293.922,293.016Z" transform="translate(-246.746 -245.969)" fill="#ffb72e"/>
        <path id="XMLID_1749_" d="M387.047,386.154a4.6,4.6,0,1,0,6.5,0,4.6,4.6,0,0,0-6.5,0Zm4.468,4.468a1.723,1.723,0,1,1,0-2.438A1.712,1.712,0,0,1,391.515,390.622Z" transform="translate(-330.328 -329.563)" fill="#ffb72e"/>
      </g>
    </g>
  </g>
</svg>
