<svg id="shield_8_" data-name="shield (8)" xmlns="http://www.w3.org/2000/svg" width="119.085" height="139.84" viewBox="0 0 119.085 139.84">
  <path id="Path_1058" data-name="Path 1058" d="M113.294,93.384a70.551,70.551,0,0,1-16.9,26.324c-8.485,8.285-19.6,14.869-33.024,19.566a10.1,10.1,0,0,1-3.209.567h-.121a10.257,10.257,0,0,1-1.97-.194,10.644,10.644,0,0,1-1.354-.369c-13.444-4.689-24.568-11.27-33.062-19.555A70.418,70.418,0,0,1,6.764,93.4C-.061,74.882.327,54.479.64,38.083l.005-.252c.063-1.354.1-2.776.126-4.347A14.821,14.821,0,0,1,14.727,18.965c16.078-.9,28.516-6.141,39.143-16.5l.093-.085a8.958,8.958,0,0,1,12.162,0l.091.085c10.629,10.358,23.067,15.6,39.145,16.5a14.821,14.821,0,0,1,13.956,14.519c.022,1.581.063,3,.126,4.347l0,.107C119.758,54.365,120.144,74.809,113.294,93.384Zm0,0" transform="translate(-0.5 0)" fill="#00dd80"/>
  <path id="Path_1059" data-name="Path 1059" d="M272.079,93.387a70.552,70.552,0,0,1-16.9,26.324c-8.485,8.285-19.6,14.869-33.024,19.566a10.1,10.1,0,0,1-3.209.567V0a8.973,8.973,0,0,1,5.961,2.379l.09.085c10.63,10.358,23.068,15.6,39.145,16.5A14.821,14.821,0,0,1,278.1,33.487c.023,1.581.063,3,.126,4.347l0,.107C278.543,54.368,278.929,74.811,272.079,93.387Zm0,0" transform="translate(-159.285 -0.003)" fill="#00aa63"/>
  <path id="Path_1060" data-name="Path 1060" d="M160.6,163.25A34.9,34.9,0,0,1,125.869,198.1h-.123a34.852,34.852,0,1,1,0-69.7h.123A34.9,34.9,0,0,1,160.6,163.25Zm0,0" transform="translate(-66.206 -93.33)" fill="#fff"/>
  <path id="Path_1061" data-name="Path 1061" d="M253.678,163.25A34.9,34.9,0,0,1,218.949,198.1V128.4A34.9,34.9,0,0,1,253.678,163.25Zm0,0" transform="translate(-159.285 -93.33)" fill="#e1ebf0"/>
  <path id="Path_1062" data-name="Path 1062" d="M187.565,218.984l-15.7,15.7-3.392,3.392a4.108,4.108,0,0,1-5.805,0l-7.292-7.3a4.1,4.1,0,1,1,5.8-5.8l4.393,4.393,16.188-16.188a4.1,4.1,0,1,1,5.8,5.8Zm0,0" transform="translate(-112.205 -154.083)" fill="#b4d2d7"/>
  <path id="Path_1063" data-name="Path 1063" d="M234.645,218.984l-15.7,15.7V223.076l9.894-9.894a4.1,4.1,0,0,1,5.8,5.8Zm0,0" transform="translate(-159.285 -154.083)" fill="#6fa5aa"/>
</svg>
