<svg id="Component_9_25" data-name="Component 9 – 25" xmlns="http://www.w3.org/2000/svg" width="27" height="27" viewBox="0 0 27 27">
  <circle id="Ellipse_173" data-name="Ellipse 173" cx="13.5" cy="13.5" r="13.5" fill="#fff"/>
  <path id="twitter" d="M13.126,35.782a5.282,5.282,0,0,1-.92.31,2.867,2.867,0,0,0,.757-1.205h0a.15.15,0,0,0-.22-.175h0a5.307,5.307,0,0,1-1.406.581.358.358,0,0,1-.088.011A.373.373,0,0,1,11,35.209a2.876,2.876,0,0,0-1.9-.718,3.075,3.075,0,0,0-.911.141,2.786,2.786,0,0,0-1.878,2.007A3.068,3.068,0,0,0,6.244,37.7a.1.1,0,0,1-.026.081.107.107,0,0,1-.079.036h-.01A7.54,7.54,0,0,1,.946,35.045h0a.15.15,0,0,0-.246.019h0a2.879,2.879,0,0,0,.468,3.5,2.577,2.577,0,0,1-.656-.254h0a.15.15,0,0,0-.223.13h0a2.879,2.879,0,0,0,1.68,2.653H1.907a2.587,2.587,0,0,1-.484-.046h0a.15.15,0,0,0-.171.194h0A2.882,2.882,0,0,0,3.527,43.2a5.306,5.306,0,0,1-2.972.9H.223a.22.22,0,0,0-.215.166.228.228,0,0,0,.109.252,7.893,7.893,0,0,0,3.966,1.069,8,8,0,0,0,3.389-.719,7.484,7.484,0,0,0,2.48-1.858,8.147,8.147,0,0,0,1.518-2.543,8.033,8.033,0,0,0,.516-2.783v-.044a.489.489,0,0,1,.183-.381A5.684,5.684,0,0,0,13.312,36h0a.15.15,0,0,0-.186-.221Z" transform="translate(7.84 -26.195)" fill="#2c406e"/>
</svg>
