<svg id="Component_9_25" data-name="Component 9 – 25" xmlns="http://www.w3.org/2000/svg" width="27" height="27" viewBox="0 0 27 27">
  <circle id="Ellipse_173" data-name="Ellipse 173" cx="13.5" cy="13.5" r="13.5" fill="#1da1f2"/>
  <path id="twitter" d="M17.5,36.212a7.042,7.042,0,0,1-1.226.414,3.823,3.823,0,0,0,1.009-1.607h0a.2.2,0,0,0-.293-.233h0a7.076,7.076,0,0,1-1.875.774.478.478,0,0,1-.117.015.5.5,0,0,1-.328-.125,3.834,3.834,0,0,0-2.537-.957,4.1,4.1,0,0,0-1.215.188,3.715,3.715,0,0,0-2.5,2.676,4.09,4.09,0,0,0-.091,1.412.137.137,0,0,1-.035.108.142.142,0,0,1-.106.048H8.172a10.054,10.054,0,0,1-6.91-3.692h0a.2.2,0,0,0-.329.026h0a3.839,3.839,0,0,0,.624,4.661,3.436,3.436,0,0,1-.875-.339h0a.2.2,0,0,0-.3.173h0a3.839,3.839,0,0,0,2.239,3.537H2.542a3.45,3.45,0,0,1-.646-.062h0a.2.2,0,0,0-.229.258h0A3.843,3.843,0,0,0,4.7,46.1,7.075,7.075,0,0,1,.74,47.3H.3a.294.294,0,0,0-.287.221.3.3,0,0,0,.145.336,10.524,10.524,0,0,0,5.288,1.426,10.668,10.668,0,0,0,4.519-.959,9.979,9.979,0,0,0,3.306-2.478,10.862,10.862,0,0,0,2.025-3.391,10.711,10.711,0,0,0,.688-3.711v-.058a.652.652,0,0,1,.244-.508,7.578,7.578,0,0,0,1.525-1.673h0a.2.2,0,0,0-.248-.295Z" transform="translate(5.288 -28.124)" fill="#fff"/>
</svg>
