<svg id="star_rating" data-name="star rating" xmlns="http://www.w3.org/2000/svg" width="26.016" height="24.879" viewBox="0 0 26.016 24.879">
  <g id="star-black-fivepointed-shape" transform="translate(0 0)">
    <path id="Path_280" data-name="Path 280" d="M25.594,11.646l-5.28,5.147,1.246,7.268a1.4,1.4,0,0,1-2.026,1.471L13.007,22.1,6.48,25.533a1.394,1.394,0,0,1-2.025-1.47L5.7,16.794.421,11.647a1.394,1.394,0,0,1,.772-2.38l7.3-1.061,3.265-6.613a1.394,1.394,0,0,1,2.5,0L17.523,8.2l7.3,1.061a1.4,1.4,0,0,1,.772,2.38Z" transform="translate(0.001 -0.814)" fill="#fff"/>
  </g>
</svg>
